# Blender v2.78 (sub 0) OBJ File: 'BRUM.blend'
# www.blender.org
mtllib New Folder.mtl
o Cylinder
v -0.014095 0.651253 -1.096457
v -0.014095 0.765757 -1.096457
v 0.201870 0.651253 -1.075186
v 0.201870 0.765757 -1.075186
v 0.409535 0.651253 -1.012192
v 0.409535 0.765757 -1.012192
v 0.600921 0.651253 -0.909894
v 0.600921 0.765757 -0.909894
v 0.768672 0.651253 -0.772224
v 0.768672 0.765757 -0.772224
v 0.906342 0.651253 -0.604473
v 0.906342 0.765757 -0.604473
v 1.008639 0.651253 -0.413088
v 1.008639 0.765757 -0.413088
v 1.071634 0.651253 -0.205422
v 1.071634 0.765757 -0.205422
v 1.092905 0.651253 0.010543
v 1.092905 0.765757 0.010543
v 1.071634 0.651253 0.226508
v 1.071634 0.765757 0.226508
v 1.008639 0.651253 0.434174
v 1.008639 0.765757 0.434174
v 0.906342 0.651253 0.625559
v 0.906342 0.765757 0.625559
v 0.768672 0.651253 0.793310
v 0.768672 0.765757 0.793310
v 0.600921 0.651253 0.930980
v 0.600921 0.765757 0.930980
v 0.409535 0.651253 1.033278
v 0.409535 0.765757 1.033278
v 0.201869 0.651253 1.096273
v 0.201869 0.765757 1.096273
v -0.014096 0.651253 1.117543
v -0.014096 0.765757 1.117543
v -0.230061 0.651253 1.096273
v -0.230061 0.765757 1.096273
v -0.437727 0.651253 1.033278
v -0.437727 0.765757 1.033278
v -0.629112 0.651253 0.930980
v -0.629112 0.765757 0.930980
v -0.796863 0.651253 0.793310
v -0.796863 0.765757 0.793310
v -0.934533 0.651253 0.625559
v -0.934533 0.765757 0.625559
v -1.036831 0.651253 0.434173
v -1.036831 0.765757 0.434173
v -1.099825 0.651253 0.226507
v -1.099825 0.765757 0.226507
v -1.121096 0.651253 0.010542
v -1.121096 0.765757 0.010542
v -1.099825 0.651253 -0.205423
v -1.099825 0.765757 -0.205423
v -1.036830 0.651253 -0.413089
v -1.036830 0.765757 -0.413089
v -0.934532 0.651253 -0.604474
v -0.934532 0.765757 -0.604474
v -0.796862 0.651253 -0.772225
v -0.796862 0.765757 -0.772225
v -0.629111 0.651253 -0.909895
v -0.629111 0.765757 -0.909895
v -0.437725 0.651253 -1.012192
v -0.437725 0.765757 -1.012192
v -0.230059 0.651253 -1.075187
v -0.230059 0.765757 -1.075187
v -0.014095 1.373620 -1.096457
v -0.014095 1.488123 -1.096457
v 0.201870 1.373620 -1.075186
v 0.201870 1.488123 -1.075186
v 0.409535 1.373620 -1.012192
v 0.409535 1.488123 -1.012192
v 0.600921 1.373620 -0.909894
v 0.600921 1.488123 -0.909894
v 0.768672 1.373620 -0.772224
v 0.768672 1.488123 -0.772224
v 0.906342 1.373620 -0.604473
v 0.906342 1.488123 -0.604473
v 1.008639 1.373620 -0.413088
v 1.008639 1.488123 -0.413088
v 1.071634 1.373620 -0.205422
v 1.071634 1.488123 -0.205422
v 1.092905 1.373620 0.010543
v 1.092905 1.488123 0.010543
v 1.071634 1.373620 0.226508
v 1.071634 1.488123 0.226508
v 1.008639 1.373620 0.434174
v 1.008639 1.488123 0.434174
v 0.906342 1.373620 0.625559
v 0.906342 1.488123 0.625559
v 0.768672 1.373620 0.793310
v 0.768672 1.488123 0.793310
v 0.600921 1.373620 0.930980
v 0.600921 1.488123 0.930980
v 0.409535 1.373620 1.033278
v 0.409535 1.488123 1.033278
v 0.201869 1.373620 1.096273
v 0.201869 1.488123 1.096273
v -0.014096 1.373620 1.117543
v -0.014096 1.488123 1.117543
v -0.230061 1.373620 1.096273
v -0.230061 1.488123 1.096273
v -0.437727 1.373620 1.033278
v -0.437727 1.488123 1.033278
v -0.629112 1.373620 0.930980
v -0.629112 1.488123 0.930980
v -0.796863 1.373620 0.793310
v -0.796863 1.488123 0.793310
v -0.934533 1.373620 0.625559
v -0.934533 1.488123 0.625559
v -1.036831 1.373620 0.434173
v -1.036831 1.488123 0.434173
v -1.099825 1.373620 0.226507
v -1.099825 1.488123 0.226507
v -1.121096 1.373620 0.010542
v -1.121096 1.488123 0.010542
v -1.099825 1.373620 -0.205423
v -1.099825 1.488123 -0.205423
v -1.036830 1.373620 -0.413089
v -1.036830 1.488123 -0.413089
v -0.934532 1.373620 -0.604474
v -0.934532 1.488123 -0.604474
v -0.796862 1.373620 -0.772225
v -0.796862 1.488123 -0.772225
v -0.629111 1.373620 -0.909895
v -0.629111 1.488123 -0.909895
v -0.437725 1.373620 -1.012192
v -0.437725 1.488123 -1.012192
v -0.230059 1.373620 -1.075187
v -0.230059 1.488123 -1.075187
v 0.000000 2.047956 -0.910063
v 0.177544 2.047956 -0.892576
v 0.348266 2.047956 -0.840788
v 0.505604 2.047956 -0.756690
v 0.643512 2.047956 -0.643512
v 0.756690 2.047956 -0.505604
v 0.840788 2.047956 -0.348266
v 0.892576 2.047956 -0.177544
v 0.910063 2.047956 -0.000000
v 0.892576 2.047956 0.177544
v 0.840788 2.047956 0.348266
v 0.756690 2.047956 0.505604
v 0.643512 2.047956 0.643512
v 0.505604 2.047956 0.756690
v 0.348266 2.047956 0.840788
v 0.177544 2.047956 0.892576
v -0.000000 2.047956 0.910063
v -0.177545 2.047956 0.892576
v -0.348266 2.047956 0.840788
v -0.505604 2.047956 0.756689
v -0.643512 2.047956 0.643511
v -0.756690 2.047956 0.505603
v -0.840789 2.047956 0.348265
v -0.892576 2.047956 0.177544
v -0.910063 2.047956 -0.000001
v -0.892576 2.047956 -0.177545
v -0.840788 2.047956 -0.348267
v -0.756689 2.047956 -0.505605
v -0.643511 2.047956 -0.643512
v -0.505603 2.047956 -0.756690
v -0.348265 2.047956 -0.840789
v -0.177543 2.047956 -0.892576
v 0.000000 1.381289 -1.000000
v 0.195090 1.381289 -0.980785
v 0.382683 1.381289 -0.923880
v 0.555570 1.381289 -0.831470
v 0.707107 1.381289 -0.707107
v 0.831470 1.381289 -0.555570
v 0.923880 1.381289 -0.382683
v 0.980785 1.381289 -0.195090
v 1.000000 1.381289 -0.000000
v 0.980785 1.381289 0.195090
v 0.923880 1.381289 0.382683
v 0.831470 1.381289 0.555570
v 0.707107 1.381289 0.707107
v 0.555570 1.381289 0.831470
v 0.382683 1.381289 0.923880
v 0.195090 1.381289 0.980785
v -0.000000 1.381289 1.000000
v -0.195091 1.381289 0.980785
v -0.382684 1.381289 0.923879
v -0.555571 1.381289 0.831469
v -0.707107 1.381289 0.707106
v -0.831470 1.381289 0.555570
v -0.923880 1.381289 0.382683
v -0.980785 1.381289 0.195089
v -1.000000 1.381289 -0.000001
v -0.980785 1.381289 -0.195091
v -0.923879 1.381289 -0.382684
v -0.831469 1.381289 -0.555571
v -0.707106 1.381289 -0.707108
v -0.555569 1.381289 -0.831470
v -0.382682 1.381289 -0.923880
v -0.195089 1.381289 -0.980786
v 0.153678 2.097128 -0.772589
v 0.000000 2.097128 -0.787725
v 0.301449 2.097128 -0.727763
v 0.437637 2.097128 -0.654969
v 0.557006 2.097128 -0.557006
v 0.654969 2.097128 -0.437637
v 0.727763 2.097128 -0.301449
v 0.772589 2.097128 -0.153678
v 0.787725 2.097128 -0.000000
v 0.772589 2.097128 0.153677
v 0.727763 2.097128 0.301449
v 0.654969 2.097128 0.437636
v 0.557006 2.097128 0.557006
v 0.437637 2.097128 0.654969
v 0.301449 2.097128 0.727763
v 0.153677 2.097128 0.772589
v -0.000000 2.097128 0.787725
v -0.153678 2.097128 0.772589
v -0.301450 2.097128 0.727763
v -0.437637 2.097128 0.654969
v -0.557006 2.097128 0.557005
v -0.654970 2.097128 0.437636
v -0.727763 2.097128 0.301449
v -0.772589 2.097128 0.153677
v -0.787725 2.097128 -0.000001
v -0.772589 2.097128 -0.153678
v -0.727763 2.097128 -0.301450
v -0.654969 2.097128 -0.437637
v -0.557005 2.097128 -0.557006
v -0.437636 2.097128 -0.654970
v -0.301448 2.097128 -0.727763
v -0.153676 2.097128 -0.772589
v 0.153678 2.014061 -0.772589
v 0.000000 2.014061 -0.787725
v 0.301449 2.014061 -0.727763
v 0.437637 2.014061 -0.654969
v 0.557006 2.014061 -0.557006
v 0.654969 2.014061 -0.437637
v 0.727763 2.014061 -0.301449
v 0.772589 2.014061 -0.153678
v 0.787725 2.014061 -0.000000
v 0.772589 2.014061 0.153677
v 0.727763 2.014061 0.301449
v 0.654969 2.014061 0.437636
v 0.557006 2.014061 0.557006
v 0.437637 2.014061 0.654969
v 0.301449 2.014061 0.727763
v 0.153677 2.014061 0.772589
v -0.000000 2.014061 0.787725
v -0.153678 2.014061 0.772589
v -0.301450 2.014061 0.727763
v -0.437637 2.014061 0.654969
v -0.557006 2.014061 0.557005
v -0.654970 2.014061 0.437636
v -0.727763 2.014061 0.301449
v -0.772589 2.014061 0.153677
v -0.787725 2.014061 -0.000001
v -0.772589 2.014061 -0.153678
v -0.727763 2.014061 -0.301450
v -0.654969 2.014061 -0.437637
v -0.557005 2.014061 -0.557006
v -0.437636 2.014061 -0.654970
v -0.301448 2.014061 -0.727763
v -0.153676 2.014061 -0.772589
v 0.000000 0.047956 -0.910063
v 0.177544 0.047956 -0.892576
v 0.348266 0.047956 -0.840788
v 0.505604 0.047956 -0.756690
v 0.643512 0.047956 -0.643512
v 0.756690 0.047956 -0.505604
v 0.840788 0.047956 -0.348266
v 0.892576 0.047956 -0.177544
v 0.910063 0.047956 -0.000000
v 0.892576 0.047956 0.177544
v 0.840788 0.047956 0.348266
v 0.756690 0.047956 0.505604
v 0.643512 0.047956 0.643512
v 0.505604 0.047956 0.756690
v 0.348266 0.047956 0.840788
v 0.177544 0.047956 0.892576
v -0.000000 0.047956 0.910063
v -0.177545 0.047956 0.892576
v -0.348266 0.047956 0.840788
v -0.505604 0.047956 0.756689
v -0.643512 0.047956 0.643511
v -0.756690 0.047956 0.505603
v -0.840789 0.047956 0.348265
v -0.892576 0.047956 0.177544
v -0.910063 0.047956 -0.000001
v -0.892576 0.047956 -0.177545
v -0.840788 0.047956 -0.348267
v -0.756689 0.047956 -0.505605
v -0.643511 0.047956 -0.643512
v -0.505603 0.047956 -0.756690
v -0.348265 0.047956 -0.840789
v -0.177543 0.047956 -0.892576
v 0.000000 0.714623 -1.000000
v 0.195090 0.714623 -0.980785
v 0.382683 0.714623 -0.923880
v 0.555570 0.714623 -0.831470
v 0.707107 0.714623 -0.707107
v 0.831470 0.714623 -0.555570
v 0.923880 0.714623 -0.382683
v 0.980785 0.714623 -0.195090
v 1.000000 0.714623 -0.000000
v 0.980785 0.714623 0.195090
v 0.923880 0.714623 0.382683
v 0.831470 0.714623 0.555570
v 0.707107 0.714623 0.707107
v 0.555570 0.714623 0.831470
v 0.382683 0.714623 0.923880
v 0.195090 0.714623 0.980785
v -0.000000 0.714623 1.000000
v -0.195091 0.714623 0.980785
v -0.382684 0.714623 0.923879
v -0.555571 0.714623 0.831469
v -0.707107 0.714623 0.707106
v -0.831470 0.714623 0.555570
v -0.923880 0.714623 0.382683
v -0.980785 0.714623 0.195089
v -1.000000 0.714623 -0.000001
v -0.980785 0.714623 -0.195091
v -0.923879 0.714623 -0.382684
v -0.831469 0.714623 -0.555571
v -0.707106 0.714623 -0.707108
v -0.555569 0.714623 -0.831470
v -0.382682 0.714623 -0.923880
v -0.195089 0.714623 -0.980786
v 0.153678 -0.001216 -0.772589
v 0.000000 -0.001216 -0.787725
v 0.301449 -0.001216 -0.727763
v 0.437637 -0.001216 -0.654969
v 0.557006 -0.001216 -0.557006
v 0.654969 -0.001216 -0.437637
v 0.727763 -0.001216 -0.301449
v 0.772589 -0.001216 -0.153678
v 0.787725 -0.001216 -0.000000
v 0.772589 -0.001216 0.153677
v 0.727763 -0.001216 0.301449
v 0.654969 -0.001216 0.437636
v 0.557006 -0.001216 0.557006
v 0.437637 -0.001216 0.654969
v 0.301449 -0.001216 0.727763
v 0.153677 -0.001216 0.772589
v -0.000000 -0.001216 0.787725
v -0.153678 -0.001216 0.772589
v -0.301450 -0.001216 0.727763
v -0.437637 -0.001216 0.654969
v -0.557006 -0.001216 0.557005
v -0.654970 -0.001216 0.437636
v -0.727763 -0.001216 0.301449
v -0.772589 -0.001216 0.153677
v -0.787725 -0.001216 -0.000001
v -0.772589 -0.001216 -0.153678
v -0.727763 -0.001216 -0.301450
v -0.654969 -0.001216 -0.437637
v -0.557005 -0.001216 -0.557006
v -0.437636 -0.001216 -0.654970
v -0.301448 -0.001216 -0.727763
v -0.153676 -0.001216 -0.772589
v 0.153678 0.081851 -0.772589
v 0.000000 0.081851 -0.787725
v 0.301449 0.081851 -0.727763
v 0.437637 0.081851 -0.654969
v 0.557006 0.081851 -0.557006
v 0.654969 0.081851 -0.437637
v 0.727763 0.081851 -0.301449
v 0.772589 0.081851 -0.153678
v 0.787725 0.081851 -0.000000
v 0.772589 0.081851 0.153677
v 0.727763 0.081851 0.301449
v 0.654969 0.081851 0.437636
v 0.557006 0.081851 0.557006
v 0.437637 0.081851 0.654969
v 0.301449 0.081851 0.727763
v 0.153677 0.081851 0.772589
v -0.000000 0.081851 0.787725
v -0.153678 0.081851 0.772589
v -0.301450 0.081851 0.727763
v -0.437637 0.081851 0.654969
v -0.557006 0.081851 0.557005
v -0.654970 0.081851 0.437636
v -0.727763 0.081851 0.301449
v -0.772589 0.081851 0.153677
v -0.787725 0.081851 -0.000001
v -0.772589 0.081851 -0.153678
v -0.727763 0.081851 -0.301450
v -0.654969 0.081851 -0.437637
v -0.557005 0.081851 -0.557006
v -0.437636 0.081851 -0.654970
v -0.301448 0.081851 -0.727763
v -0.153676 0.081851 -0.772589
v 0.000000 1.047956 -1.000000
v 0.195090 1.047956 -0.980785
v 0.382683 1.047956 -0.923880
v 0.555570 1.047956 -0.831470
v 0.707107 1.047956 -0.707107
v 0.831470 1.047956 -0.555570
v 0.923880 1.047956 -0.382683
v 0.980785 1.047956 -0.195090
v 1.000000 1.047956 -0.000000
v 0.980785 1.047956 0.195090
v 0.923880 1.047956 0.382683
v 0.831470 1.047956 0.555570
v 0.707107 1.047956 0.707107
v 0.555570 1.047956 0.831470
v 0.382683 1.047956 0.923880
v 0.195090 1.047956 0.980785
v -0.000000 1.047956 1.000000
v -0.195091 1.047956 0.980785
v -0.382684 1.047956 0.923879
v -0.555571 1.047956 0.831469
v -0.707107 1.047956 0.707106
v -0.831470 1.047956 0.555570
v -0.923880 1.047956 0.382683
v -0.980785 1.047956 0.195089
v -1.000000 1.047956 -0.000001
v -0.980785 1.047956 -0.195091
v -0.923879 1.047956 -0.382684
v -0.831469 1.047956 -0.555571
v -0.707106 1.047956 -0.707108
v -0.555569 1.047956 -0.831470
v -0.382682 1.047956 -0.923880
v -0.195089 1.047956 -0.980786
v 0.000000 0.770869 -1.000000
v 0.195090 0.770869 -0.980785
v 0.382683 0.770869 -0.923880
v 0.555570 0.770869 -0.831470
v 0.707107 0.770869 -0.707107
v 0.831470 0.770869 -0.555570
v 0.923880 0.770869 -0.382683
v 0.980785 0.770869 -0.195090
v 1.000000 0.770869 -0.000000
v 0.980785 0.770869 0.195090
v 0.923880 0.770869 0.382683
v 0.831470 0.770869 0.555570
v 0.707107 0.770869 0.707107
v 0.555570 0.770869 0.831470
v 0.382683 0.770869 0.923880
v 0.195090 0.770869 0.980785
v -0.000000 0.770869 1.000000
v -0.195091 0.770869 0.980785
v -0.382684 0.770869 0.923879
v -0.555571 0.770869 0.831469
v -0.707107 0.770869 0.707106
v -0.831470 0.770869 0.555570
v -0.923880 0.770869 0.382683
v -0.980785 0.770869 0.195089
v -1.000000 0.770869 -0.000001
v -0.980785 0.770869 -0.195091
v -0.923879 0.770869 -0.382684
v -0.831469 0.770869 -0.555571
v -0.707106 0.770869 -0.707108
v -0.555569 0.770869 -0.831470
v -0.382682 0.770869 -0.923880
v -0.195089 0.770869 -0.980786
v 0.000000 1.366475 -1.000000
v 0.195090 1.366475 -0.980785
v 0.382683 1.366475 -0.923880
v 0.555570 1.366475 -0.831470
v 0.707107 1.366475 -0.707107
v 0.831470 1.366475 -0.555570
v 0.923880 1.366475 -0.382683
v 0.980785 1.366475 -0.195090
v 1.000000 1.366475 -0.000000
v 0.980785 1.366475 0.195090
v 0.923880 1.366475 0.382683
v 0.831470 1.366475 0.555570
v 0.707107 1.366475 0.707107
v 0.555570 1.366475 0.831470
v 0.382683 1.366475 0.923880
v 0.195090 1.366475 0.980785
v -0.000000 1.366475 1.000000
v -0.195091 1.366475 0.980785
v -0.382684 1.366475 0.923879
v -0.555571 1.366475 0.831469
v -0.707107 1.366475 0.707106
v -0.831470 1.366475 0.555570
v -0.923880 1.366475 0.382683
v -0.980785 1.366475 0.195089
v -1.000000 1.366475 -0.000001
v -0.980785 1.366475 -0.195091
v -0.923879 1.366475 -0.382684
v -0.831469 1.366475 -0.555571
v -0.707106 1.366475 -0.707108
v -0.555569 1.366475 -0.831470
v -0.382682 1.366475 -0.923880
v -0.195089 1.366475 -0.980786
vt 0.0577 0.5377
vt 0.0493 0.5272
vt 0.0715 0.5125
vt 0.0777 0.5245
vt 0.0961 0.5025
vt 0.0999 0.5154
vt 0.1222 0.4974
vt 0.1234 0.5108
vt 0.1488 0.4974
vt 0.1473 0.5108
vt 0.1747 0.5025
vt 0.1709 0.5153
vt 0.1992 0.5121
vt 0.1930 0.5239
vt 0.2212 0.5263
vt 0.2128 0.5366
vt 0.2399 0.5444
vt 0.2297 0.5529
vt 0.2545 0.5659
vt 0.2429 0.5721
vt 0.2646 0.5899
vt 0.2519 0.5937
vt 0.2697 0.6155
vt 0.2565 0.6166
vt 0.2696 0.6416
vt 0.2564 0.6402
vt 0.2643 0.6674
vt 0.2517 0.6633
vt 0.2541 0.6916
vt 0.2424 0.6851
vt 0.2392 0.7134
vt 0.2290 0.7047
vt 0.2202 0.7318
vt 0.2119 0.7213
vt 0.1980 0.7462
vt 0.1919 0.7342
vt 0.1734 0.7561
vt 0.1697 0.7431
vt 0.1475 0.7611
vt 0.1462 0.7477
vt 0.1211 0.7614
vt 0.1222 0.7481
vt 0.0953 0.7570
vt 0.0989 0.7442
vt 0.0709 0.7475
vt 0.0770 0.7358
vt 0.0489 0.7335
vt 0.0572 0.7232
vt 0.0302 0.7154
vt 0.0404 0.7070
vt 0.0155 0.6939
vt 0.0272 0.6877
vt 0.0054 0.6698
vt 0.0181 0.6661
vt 0.0002 0.6442
vt 0.0135 0.6430
vt 0.0002 0.6179
vt 0.0135 0.6194
vt 0.0054 0.5921
vt 0.0182 0.5962
vt 0.0157 0.5678
vt 0.0274 0.5743
vt 0.4036 0.9836
vt 0.3796 0.9836
vt 0.3562 0.9789
vt 0.3341 0.9698
vt 0.3142 0.9565
vt 0.2973 0.9396
vt 0.2840 0.9197
vt 0.2748 0.8976
vt 0.2702 0.8741
vt 0.2702 0.8502
vt 0.2748 0.8267
vt 0.2840 0.8046
vt 0.2973 0.7847
vt 0.3142 0.7678
vt 0.3341 0.7545
vt 0.3562 0.7454
vt 0.3796 0.7407
vt 0.4036 0.7407
vt 0.4270 0.7454
vt 0.4491 0.7545
vt 0.4690 0.7678
vt 0.4859 0.7847
vt 0.4992 0.8046
vt 0.5084 0.8267
vt 0.5130 0.8502
vt 0.5130 0.8741
vt 0.5084 0.8976
vt 0.4992 0.9197
vt 0.4859 0.9396
vt 0.4690 0.9565
vt 0.4491 0.9698
vt 0.4270 0.9789
vt 0.0305 0.5459
vt 0.0408 0.5546
vt 0.5575 0.5245
vt 0.5774 0.5112
vt 0.5995 0.5020
vt 0.6230 0.4974
vt 0.6469 0.4974
vt 0.6704 0.5020
vt 0.6925 0.5112
vt 0.7124 0.5245
vt 0.7293 0.5414
vt 0.7426 0.5613
vt 0.7517 0.5834
vt 0.7564 0.6068
vt 0.7564 0.6308
vt 0.7517 0.6542
vt 0.7426 0.6763
vt 0.7293 0.6962
vt 0.7124 0.7131
vt 0.6925 0.7264
vt 0.6704 0.7356
vt 0.6469 0.7402
vt 0.6230 0.7402
vt 0.5995 0.7356
vt 0.5774 0.7264
vt 0.5575 0.7131
vt 0.5406 0.6962
vt 0.5273 0.6763
vt 0.5182 0.6542
vt 0.5135 0.6308
vt 0.5135 0.6068
vt 0.5182 0.5834
vt 0.5273 0.5613
vt 0.5406 0.5414
vt 0.6666 0.2642
vt 0.6629 0.2513
vt 0.6848 0.2422
vt 0.6911 0.2541
vt 0.7046 0.2289
vt 0.7131 0.2394
vt 0.7214 0.2120
vt 0.7318 0.2206
vt 0.7347 0.1921
vt 0.7465 0.1985
vt 0.7438 0.1699
vt 0.7567 0.1740
vt 0.7484 0.1464
vt 0.7618 0.1479
vt 0.7484 0.1225
vt 0.7618 0.1213
vt 0.7437 0.0990
vt 0.7567 0.0952
vt 0.7346 0.0769
vt 0.7465 0.0707
vt 0.7213 0.0571
vt 0.7318 0.0487
vt 0.7045 0.0402
vt 0.7131 0.0299
vt 0.6847 0.0270
vt 0.6911 0.0153
vt 0.6628 0.0180
vt 0.6667 0.0053
vt 0.6395 0.0135
vt 0.6409 0.0002
vt 0.6159 0.0137
vt 0.6146 0.0004
vt 0.5929 0.0185
vt 0.5890 0.0058
vt 0.5713 0.0278
vt 0.5649 0.0162
vt 0.5520 0.0412
vt 0.5435 0.0311
vt 0.5358 0.0582
vt 0.5254 0.0500
vt 0.5233 0.0781
vt 0.5115 0.0721
vt 0.5151 0.1000
vt 0.5024 0.0965
vt 0.5114 0.1234
vt 0.4981 0.1221
vt 0.5105 0.1471
vt 0.4974 0.1478
vt 0.5143 0.1701
vt 0.5016 0.1734
vt 0.5227 0.1920
vt 0.5108 0.1978
vt 0.5353 0.2118
vt 0.5248 0.2199
vt 0.5517 0.2286
vt 0.5430 0.2387
vt 0.5711 0.2420
vt 0.5646 0.2535
vt 0.5928 0.2512
vt 0.5887 0.2638
vt 0.6159 0.2559
vt 0.6144 0.2692
vt 0.8903 0.7402
vt 0.8664 0.7402
vt 0.8429 0.7356
vt 0.8208 0.7264
vt 0.8009 0.7131
vt 0.7840 0.6962
vt 0.7707 0.6763
vt 0.7615 0.6542
vt 0.7569 0.6308
vt 0.7569 0.6068
vt 0.7615 0.5834
vt 0.7707 0.5613
vt 0.7840 0.5414
vt 0.8009 0.5245
vt 0.8208 0.5112
vt 0.8429 0.5020
vt 0.8664 0.4974
vt 0.8903 0.4974
vt 0.9137 0.5020
vt 0.9358 0.5112
vt 0.9557 0.5245
vt 0.9727 0.5414
vt 0.9859 0.5613
vt 0.9951 0.5834
vt 0.9998 0.6068
vt 0.9998 0.6308
vt 0.9951 0.6542
vt 0.9859 0.6763
vt 0.9727 0.6962
vt 0.9557 0.7131
vt 0.9358 0.7264
vt 0.9137 0.7356
vt 0.6396 0.2559
vt 0.6407 0.2693
vt 0.3142 0.5245
vt 0.3341 0.5112
vt 0.3562 0.5020
vt 0.3796 0.4974
vt 0.4036 0.4974
vt 0.4270 0.5020
vt 0.4491 0.5112
vt 0.4690 0.5245
vt 0.4859 0.5414
vt 0.4992 0.5613
vt 0.5084 0.5834
vt 0.5130 0.6068
vt 0.5130 0.6308
vt 0.5084 0.6542
vt 0.4992 0.6763
vt 0.4859 0.6962
vt 0.4690 0.7131
vt 0.4491 0.7264
vt 0.4270 0.7356
vt 0.4036 0.7402
vt 0.3796 0.7402
vt 0.3562 0.7356
vt 0.3341 0.7264
vt 0.3142 0.7131
vt 0.2973 0.6962
vt 0.2840 0.6763
vt 0.2748 0.6542
vt 0.2702 0.6308
vt 0.2702 0.6068
vt 0.2748 0.5834
vt 0.2840 0.5613
vt 0.2973 0.5414
vt 0.3121 0.3239
vt 0.3837 0.4124
vt 0.3490 0.4357
vt 0.2961 0.3349
vt 0.3104 0.4517
vt 0.2782 0.3425
vt 0.2694 0.4599
vt 0.2591 0.3466
vt 0.2276 0.4599
vt 0.2396 0.3467
vt 0.1866 0.4517
vt 0.2205 0.3431
vt 0.1480 0.4356
vt 0.2025 0.3358
vt 0.1133 0.4123
vt 0.1863 0.3251
vt 0.0839 0.3827
vt 0.1725 0.3115
vt 0.0609 0.3480
vt 0.1616 0.2955
vt 0.0451 0.3095
vt 0.1540 0.2776
vt 0.0371 0.2686
vt 0.1501 0.2586
vt 0.0372 0.2270
vt 0.1500 0.2392
vt 0.0454 0.1862
vt 0.1536 0.2202
vt 0.0614 0.1478
vt 0.1609 0.2022
vt 0.0846 0.1133
vt 0.1715 0.1861
vt 0.1140 0.0840
vt 0.1851 0.1722
vt 0.1486 0.0610
vt 0.2011 0.1613
vt 0.1870 0.0451
vt 0.2190 0.1538
vt 0.2277 0.0370
vt 0.2379 0.1498
vt 0.2692 0.0369
vt 0.2573 0.1496
vt 0.3100 0.0450
vt 0.2763 0.1532
vt 0.3484 0.0608
vt 0.2943 0.1604
vt 0.3830 0.0838
vt 0.3105 0.1710
vt 0.4125 0.1132
vt 0.3243 0.1845
vt 0.4357 0.1477
vt 0.3353 0.2005
vt 0.4517 0.1861
vt 0.3429 0.2183
vt 0.4599 0.2269
vt 0.3469 0.2373
vt 0.4601 0.2685
vt 0.3471 0.2566
vt 0.4521 0.3094
vt 0.3435 0.2757
vt 0.4362 0.3480
vt 0.3363 0.2937
vt 0.4131 0.3828
vt 0.4689 0.3656
vt 0.4418 0.4064
vt 0.3257 0.3100
vt 0.3147 0.3010
vt 0.3030 0.3129
vt 0.3237 0.2871
vt 0.3299 0.2717
vt 0.3330 0.2553
vt 0.3328 0.2387
vt 0.3294 0.2225
vt 0.3228 0.2072
vt 0.3134 0.1935
vt 0.3016 0.1820
vt 0.2877 0.1729
vt 0.2723 0.1667
vt 0.2560 0.1637
vt 0.2394 0.1639
vt 0.2231 0.1673
vt 0.2079 0.1738
vt 0.1942 0.1832
vt 0.1825 0.1950
vt 0.1734 0.2089
vt 0.1672 0.2243
vt 0.1641 0.2406
vt 0.1642 0.2572
vt 0.1676 0.2735
vt 0.1741 0.2887
vt 0.1834 0.3025
vt 0.1953 0.3141
vt 0.2092 0.3232
vt 0.2246 0.3294
vt 0.2410 0.3326
vt 0.2577 0.3324
vt 0.2740 0.3289
vt 0.2893 0.3224
vt 0.6191 0.4585
vt 0.6009 0.4622
vt 0.5999 0.4527
vt 0.6162 0.4494
vt 0.4968 0.2233
vt 0.4969 0.2722
vt 0.4411 0.0898
vt 0.4683 0.1303
vt 0.3208 0.0097
vt 0.3659 0.0283
vt 0.2243 0.0002
vt 0.2730 0.0002
vt 0.0908 0.0553
vt 0.1314 0.0283
vt 0.4065 0.0554
vt 0.0102 0.1752
vt 0.0290 0.1302
vt 0.0551 0.4060
vt 0.0281 0.3652
vt 0.0563 0.0897
vt 0.1755 0.4871
vt 0.1303 0.4682
vt 0.0002 0.2719
vt 0.0005 0.2230
vt 0.0896 0.4408
vt 0.2728 0.4969
vt 0.2237 0.4968
vt 0.4071 0.4411
vt 0.3664 0.4685
vt 0.4875 0.3202
vt 0.4871 0.1754
vt 0.1765 0.0097
vt 0.0096 0.3199
vt 0.3210 0.4873
vt 0.6315 0.4429
vt 0.5832 0.4527
vt 0.5669 0.4493
vt 0.5515 0.4427
vt 0.5376 0.4332
vt 0.5258 0.4210
vt 0.5166 0.4068
vt 0.5102 0.3911
vt 0.5071 0.3743
vt 0.5073 0.3573
vt 0.5108 0.3406
vt 0.5173 0.3248
vt 0.5265 0.3106
vt 0.5381 0.2985
vt 0.5519 0.2891
vt 0.5672 0.2826
vt 0.5835 0.2793
vt 0.6001 0.2793
vt 0.6164 0.2827
vt 0.6319 0.2893
vt 0.6457 0.2988
vt 0.6575 0.3109
vt 0.6667 0.3251
vt 0.6729 0.3409
vt 0.6760 0.3576
vt 0.6757 0.3747
vt 0.6723 0.3914
vt 0.6660 0.4072
vt 0.6569 0.4214
vt 0.6452 0.4334
vt 0.6010 0.2698
vt 0.6192 0.2735
vt 0.4974 0.3753
vt 0.4976 0.3563
vt 0.6823 0.3381
vt 0.6857 0.3567
vt 0.5472 0.2807
vt 0.5642 0.2734
vt 0.5315 0.4406
vt 0.5183 0.4272
vt 0.5318 0.2913
vt 0.6645 0.4273
vt 0.6515 0.4407
vt 0.5014 0.3378
vt 0.5087 0.3204
vt 0.6364 0.2807
vt 0.6519 0.2913
vt 0.5823 0.4622
vt 0.6855 0.3756
vt 0.5080 0.4114
vt 0.5009 0.3939
vt 0.5824 0.2697
vt 0.6362 0.4512
vt 0.5641 0.4585
vt 0.5469 0.4512
vt 0.5189 0.3047
vt 0.6651 0.3047
vt 0.6817 0.3941
vt 0.6746 0.4116
vt 0.6753 0.3206
vt 0.2808 0.2865
vt 0.2727 0.2920
vt 0.2601 0.2699
vt 0.2641 0.2672
vt 0.2636 0.2958
vt 0.2555 0.2718
vt 0.2540 0.2976
vt 0.2507 0.2728
vt 0.2536 0.2977
vt 0.2438 0.2980
vt 0.2458 0.2728
vt 0.2342 0.2962
vt 0.2411 0.2718
vt 0.2250 0.2926
vt 0.2366 0.2699
vt 0.2168 0.2872
vt 0.2325 0.2672
vt 0.2098 0.2803
vt 0.2291 0.2638
vt 0.2042 0.2722
vt 0.2265 0.2598
vt 0.2004 0.2631
vt 0.2246 0.2553
vt 0.1984 0.2535
vt 0.2237 0.2505
vt 0.1984 0.2437
vt 0.2238 0.2457
vt 0.2002 0.2340
vt 0.2248 0.2410
vt 0.2039 0.2248
vt 0.2267 0.2365
vt 0.2094 0.2166
vt 0.2295 0.2325
vt 0.2163 0.2096
vt 0.2330 0.2291
vt 0.2245 0.2040
vt 0.2371 0.2264
vt 0.2335 0.2001
vt 0.2416 0.2245
vt 0.2432 0.1981
vt 0.2464 0.2235
vt 0.2531 0.1980
vt 0.2512 0.2234
vt 0.2627 0.1998
vt 0.2560 0.2244
vt 0.2719 0.2034
vt 0.2604 0.2262
vt 0.2801 0.2088
vt 0.2644 0.2289
vt 0.2872 0.2157
vt 0.2678 0.2323
vt 0.2927 0.2238
vt 0.2705 0.2363
vt 0.2966 0.2329
vt 0.2723 0.2408
vt 0.2986 0.2425
vt 0.2732 0.2455
vt 0.2987 0.2524
vt 0.2732 0.2504
vt 0.2968 0.2621
vt 0.2722 0.2552
vt 0.2931 0.2712
vt 0.2703 0.2597
vt 0.2676 0.2637
vt 0.2648 0.2614
vt 0.2672 0.2579
vt 0.2877 0.2795
vt 0.2957 0.2858
vt 0.2874 0.2942
vt 0.3022 0.2758
vt 0.3066 0.2648
vt 0.3088 0.2532
vt 0.3086 0.2414
vt 0.3062 0.2298
vt 0.3015 0.2189
vt 0.2949 0.2091
vt 0.2864 0.2009
vt 0.2765 0.1944
vt 0.2655 0.1900
vt 0.2539 0.1879
vt 0.2420 0.1880
vt 0.2304 0.1905
vt 0.2195 0.1951
vt 0.2098 0.2018
vt 0.2014 0.2103
vt 0.1949 0.2202
vt 0.1905 0.2312
vt 0.1883 0.2428
vt 0.1884 0.2546
vt 0.1908 0.2662
vt 0.1954 0.2771
vt 0.2021 0.2869
vt 0.2105 0.2952
vt 0.2204 0.3016
vt 0.2314 0.3060
vt 0.2430 0.3082
vt 0.2549 0.3080
vt 0.2667 0.3056
vt 0.2551 0.3080
vt 0.2776 0.3009
vt 0.2618 0.2644
vt 0.2605 0.2627
vt 0.2631 0.2600
vt 0.2696 0.2500
vt 0.2697 0.2458
vt 0.2674 0.2379
vt 0.2651 0.2345
vt 0.2588 0.2293
vt 0.2550 0.2278
vt 0.2509 0.2270
vt 0.2467 0.2270
vt 0.2388 0.2295
vt 0.2353 0.2319
vt 0.2622 0.2316
vt 0.2299 0.2383
vt 0.2282 0.2421
vt 0.2296 0.2581
vt 0.2319 0.2616
vt 0.2323 0.2348
vt 0.2382 0.2668
vt 0.2421 0.2684
vt 0.2273 0.2461
vt 0.2273 0.2502
vt 0.2348 0.2645
vt 0.2462 0.2692
vt 0.2504 0.2692
vt 0.2584 0.2667
vt 0.2688 0.2541
vt 0.2689 0.2418
vt 0.2427 0.2279
vt 0.2280 0.2543
vt 0.2545 0.2684
vt 0.8277 0.2890
vt 0.8397 0.3011
vt 0.8492 0.3152
vt 0.8557 0.3310
vt 0.8590 0.3476
vt 0.8590 0.3647
vt 0.8557 0.3814
vt 0.8492 0.3971
vt 0.8397 0.4112
vt 0.8277 0.4233
vt 0.8136 0.4327
vt 0.7978 0.4393
vt 0.7811 0.4426
vt 0.7641 0.4426
vt 0.7474 0.4393
vt 0.7317 0.4327
vt 0.7175 0.4233
vt 0.7055 0.4112
vt 0.6960 0.3971
vt 0.6895 0.3814
vt 0.6862 0.3647
vt 0.6862 0.3477
vt 0.6895 0.3310
vt 0.6960 0.3152
vt 0.7055 0.3011
vt 0.7175 0.2890
vt 0.7317 0.2796
vt 0.7474 0.2731
vt 0.7641 0.2697
vt 0.7811 0.2697
vt 0.7978 0.2731
vt 0.8136 0.2796
vt 0.2317 0.2393
vt 0.2302 0.2427
vt 0.2609 0.2332
vt 0.2578 0.2312
vt 0.2335 0.2602
vt 0.2362 0.2629
vt 0.2398 0.2314
vt 0.2366 0.2336
vt 0.2675 0.2460
vt 0.2669 0.2423
vt 0.2433 0.2299
vt 0.2502 0.2671
vt 0.2539 0.2663
vt 0.2544 0.2298
vt 0.2507 0.2291
vt 0.2294 0.2464
vt 0.2294 0.2501
vt 0.2653 0.2569
vt 0.2393 0.2649
vt 0.2655 0.2389
vt 0.2635 0.2358
vt 0.2339 0.2362
vt 0.2573 0.2648
vt 0.2667 0.2534
vt 0.2675 0.2498
vt 0.2470 0.2292
vt 0.2301 0.2537
vt 0.2427 0.2663
vt 0.2464 0.2671
vt 0.2315 0.2571
vt 0.2940 0.3020
vt 0.2825 0.3098
vt 0.2698 0.3153
vt 0.2562 0.3183
vt 0.2423 0.3184
vt 0.2287 0.3158
vt 0.2158 0.3107
vt 0.2042 0.3031
vt 0.1943 0.2934
vt 0.1866 0.2820
vt 0.1811 0.2693
vt 0.1783 0.2558
vt 0.1782 0.2420
vt 0.1808 0.2284
vt 0.1859 0.2156
vt 0.1935 0.2040
vt 0.2032 0.1941
vt 0.2146 0.1863
vt 0.2273 0.1809
vt 0.2408 0.1780
vt 0.2547 0.1778
vt 0.2682 0.1803
vt 0.2811 0.1854
vt 0.2927 0.1930
vt 0.3025 0.2026
vt 0.3104 0.2140
vt 0.3158 0.2267
vt 0.3187 0.2402
vt 0.3188 0.2540
vt 0.3163 0.2676
vt 0.3112 0.2805
vt 0.3036 0.2921
vn 0.0980 0.0000 -0.9952
vn 0.2903 0.0000 -0.9569
vn 0.4714 0.0000 -0.8819
vn 0.6344 0.0000 -0.7730
vn 0.7730 0.0000 -0.6344
vn 0.8819 0.0000 -0.4714
vn 0.9569 0.0000 -0.2903
vn 0.9952 0.0000 -0.0980
vn 0.9952 0.0000 0.0980
vn 0.9569 0.0000 0.2903
vn 0.8819 0.0000 0.4714
vn 0.7730 0.0000 0.6344
vn 0.6344 0.0000 0.7730
vn 0.4714 0.0000 0.8819
vn 0.2903 0.0000 0.9569
vn 0.0980 0.0000 0.9952
vn -0.0980 0.0000 0.9952
vn -0.2903 0.0000 0.9569
vn -0.4714 0.0000 0.8819
vn -0.6344 0.0000 0.7730
vn -0.7730 0.0000 0.6344
vn -0.8819 0.0000 0.4714
vn -0.9569 0.0000 0.2903
vn -0.9952 0.0000 0.0980
vn -0.9952 0.0000 -0.0980
vn -0.9569 0.0000 -0.2903
vn -0.8819 0.0000 -0.4714
vn -0.7730 0.0000 -0.6344
vn -0.6344 0.0000 -0.7730
vn -0.4714 0.0000 -0.8819
vn 0.0000 1.0000 0.0000
vn -0.2903 0.0000 -0.9569
vn -0.0980 0.0000 -0.9952
vn 0.0000 -1.0000 -0.0000
vn 0.0971 0.1331 -0.9863
vn 0.2877 0.1331 -0.9484
vn 0.4672 0.1331 -0.8741
vn 0.6288 0.1331 -0.7661
vn 0.7661 0.1331 -0.6288
vn 0.8741 0.1331 -0.4672
vn 0.9484 0.1331 -0.2877
vn 0.9863 0.1331 -0.0971
vn 0.9863 0.1331 0.0971
vn 0.9484 0.1331 0.2877
vn 0.8741 0.1331 0.4672
vn 0.7661 0.1331 0.6288
vn 0.6288 0.1331 0.7661
vn 0.4672 0.1331 0.8741
vn 0.2877 0.1331 0.9484
vn 0.0971 0.1331 0.9863
vn -0.0971 0.1331 0.9863
vn -0.2877 0.1331 0.9484
vn -0.4672 0.1331 0.8741
vn -0.6288 0.1331 0.7661
vn -0.7661 0.1331 0.6288
vn -0.8741 0.1331 0.4672
vn -0.9484 0.1331 0.2877
vn -0.9863 0.1331 0.0971
vn -0.9863 0.1331 -0.0971
vn -0.9484 0.1331 -0.2877
vn -0.8741 0.1331 -0.4672
vn -0.7661 0.1331 -0.6288
vn -0.6288 0.1331 -0.7661
vn -0.4672 0.1331 -0.8741
vn -0.1087 0.9272 -0.3584
vn -0.2877 0.1331 -0.9484
vn -0.0971 0.1331 -0.9863
vn -0.2895 0.9272 -0.2376
vn -0.3727 0.9272 -0.0367
vn -0.3303 0.9272 0.1765
vn -0.2376 0.9272 0.2895
vn -0.0367 0.9272 0.3727
vn -0.3584 0.9272 0.1087
vn 0.1765 0.9272 0.3303
vn 0.3727 0.9272 0.0367
vn 0.1087 0.9272 0.3584
vn 0.3303 0.9272 -0.1765
vn 0.2895 0.9272 0.2376
vn 0.3584 0.9272 -0.1087
vn 0.2376 0.9272 -0.2895
vn 0.0367 0.9272 -0.3727
vn -0.0367 0.9272 -0.3727
vn -0.2376 0.9272 -0.2895
vn -0.3584 0.9272 -0.1087
vn -0.3727 0.9272 0.0367
vn -0.2895 0.9272 0.2376
vn -0.3303 0.9272 -0.1765
vn -0.1087 0.9272 0.3584
vn 0.2376 0.9272 0.2895
vn -0.1765 0.9272 0.3303
vn 0.3584 0.9272 0.1087
vn 0.0367 0.9272 0.3727
vn 0.2895 0.9272 -0.2376
vn 0.3303 0.9272 0.1765
vn 0.1087 0.9272 -0.3584
vn 0.3727 0.9272 -0.0367
vn 0.1765 0.9272 -0.3303
vn -0.1765 0.9272 -0.3303
vn 0.0971 -0.1331 -0.9863
vn 0.2877 -0.1331 -0.9484
vn 0.4672 -0.1331 -0.8741
vn 0.6288 -0.1331 -0.7661
vn 0.7661 -0.1331 -0.6288
vn 0.8741 -0.1331 -0.4672
vn 0.9484 -0.1331 -0.2877
vn 0.9863 -0.1331 -0.0971
vn 0.9863 -0.1331 0.0971
vn 0.9484 -0.1331 0.2877
vn 0.8741 -0.1331 0.4672
vn 0.7661 -0.1331 0.6288
vn 0.6288 -0.1331 0.7661
vn 0.4672 -0.1331 0.8741
vn 0.2877 -0.1331 0.9484
vn 0.0971 -0.1331 0.9863
vn -0.0971 -0.1331 0.9863
vn -0.2877 -0.1331 0.9484
vn -0.4672 -0.1331 0.8741
vn -0.6288 -0.1331 0.7661
vn -0.7661 -0.1331 0.6288
vn -0.8741 -0.1331 0.4672
vn -0.9484 -0.1331 0.2877
vn -0.9863 -0.1331 0.0971
vn -0.9863 -0.1331 -0.0971
vn -0.9484 -0.1331 -0.2877
vn -0.8741 -0.1331 -0.4672
vn -0.7661 -0.1331 -0.6288
vn -0.6288 -0.1331 -0.7661
vn -0.4672 -0.1331 -0.8741
vn -0.1087 -0.9272 -0.3584
vn -0.2877 -0.1331 -0.9484
vn -0.0971 -0.1331 -0.9863
vn -0.2895 -0.9272 -0.2376
vn -0.3727 -0.9272 -0.0367
vn -0.3303 -0.9272 0.1765
vn -0.2376 -0.9272 0.2895
vn -0.0367 -0.9272 0.3727
vn -0.3584 -0.9272 0.1087
vn 0.1765 -0.9272 0.3303
vn 0.3727 -0.9272 0.0367
vn 0.1087 -0.9272 0.3584
vn 0.3303 -0.9272 -0.1765
vn 0.2895 -0.9272 0.2376
vn 0.3584 -0.9272 -0.1087
vn 0.2376 -0.9272 -0.2895
vn 0.0367 -0.9272 -0.3727
vn -0.0367 -0.9272 -0.3727
vn -0.2376 -0.9272 -0.2895
vn -0.3584 -0.9272 -0.1087
vn -0.3727 -0.9272 0.0367
vn -0.2895 -0.9272 0.2376
vn -0.3303 -0.9272 -0.1765
vn -0.1087 -0.9272 0.3584
vn 0.2376 -0.9272 0.2895
vn -0.1765 -0.9272 0.3303
vn 0.3584 -0.9272 0.1087
vn 0.0367 -0.9272 0.3727
vn 0.2895 -0.9272 -0.2376
vn 0.3303 -0.9272 0.1765
vn 0.1087 -0.9272 -0.3584
vn 0.3727 -0.9272 -0.0367
vn 0.1765 -0.9272 -0.3303
vn -0.1765 -0.9272 -0.3303
usemtl Material
s off
f 1/1/1 2/2/1 4/3/1 3/4/1
f 3/4/2 4/3/2 6/5/2 5/6/2
f 5/6/3 6/5/3 8/7/3 7/8/3
f 7/8/4 8/7/4 10/9/4 9/10/4
f 9/10/5 10/9/5 12/11/5 11/12/5
f 11/12/6 12/11/6 14/13/6 13/14/6
f 13/14/7 14/13/7 16/15/7 15/16/7
f 15/16/8 16/15/8 18/17/8 17/18/8
f 17/18/9 18/17/9 20/19/9 19/20/9
f 19/20/10 20/19/10 22/21/10 21/22/10
f 21/22/11 22/21/11 24/23/11 23/24/11
f 23/24/12 24/23/12 26/25/12 25/26/12
f 25/26/13 26/25/13 28/27/13 27/28/13
f 27/28/14 28/27/14 30/29/14 29/30/14
f 29/30/15 30/29/15 32/31/15 31/32/15
f 31/32/16 32/31/16 34/33/16 33/34/16
f 33/34/17 34/33/17 36/35/17 35/36/17
f 35/36/18 36/35/18 38/37/18 37/38/18
f 37/38/19 38/37/19 40/39/19 39/40/19
f 39/40/20 40/39/20 42/41/20 41/42/20
f 41/42/21 42/41/21 44/43/21 43/44/21
f 43/44/22 44/43/22 46/45/22 45/46/22
f 45/46/23 46/45/23 48/47/23 47/48/23
f 47/48/24 48/47/24 50/49/24 49/50/24
f 49/50/25 50/49/25 52/51/25 51/52/25
f 51/52/26 52/51/26 54/53/26 53/54/26
f 53/54/27 54/53/27 56/55/27 55/56/27
f 55/56/28 56/55/28 58/57/28 57/58/28
f 57/58/29 58/57/29 60/59/29 59/60/29
f 59/60/30 60/59/30 62/61/30 61/62/30
f 4/63/31 2/64/31 64/65/31 62/66/31 60/67/31 58/68/31 56/69/31 54/70/31 52/71/31 50/72/31 48/73/31 46/74/31 44/75/31 42/76/31 40/77/31 38/78/31 36/79/31 34/80/31 32/81/31 30/82/31 28/83/31 26/84/31 24/85/31 22/86/31 20/87/31 18/88/31 16/89/31 14/90/31 12/91/31 10/92/31 8/93/31 6/94/31
f 61/62/32 62/61/32 64/95/32 63/96/32
f 63/96/33 64/95/33 2/2/33 1/1/33
f 1/97/34 3/98/34 5/99/34 7/100/34 9/101/34 11/102/34 13/103/34 15/104/34 17/105/34 19/106/34 21/107/34 23/108/34 25/109/34 27/110/34 29/111/34 31/112/34 33/113/34 35/114/34 37/115/34 39/116/34 41/117/34 43/118/34 45/119/34 47/120/34 49/121/34 51/122/34 53/123/34 55/124/34 57/125/34 59/126/34 61/127/34 63/128/34
f 65/129/1 66/130/1 68/131/1 67/132/1
f 67/132/2 68/131/2 70/133/2 69/134/2
f 69/134/3 70/133/3 72/135/3 71/136/3
f 71/136/4 72/135/4 74/137/4 73/138/4
f 73/138/5 74/137/5 76/139/5 75/140/5
f 75/140/6 76/139/6 78/141/6 77/142/6
f 77/142/7 78/141/7 80/143/7 79/144/7
f 79/144/8 80/143/8 82/145/8 81/146/8
f 81/146/9 82/145/9 84/147/9 83/148/9
f 83/148/10 84/147/10 86/149/10 85/150/10
f 85/150/11 86/149/11 88/151/11 87/152/11
f 87/152/12 88/151/12 90/153/12 89/154/12
f 89/154/13 90/153/13 92/155/13 91/156/13
f 91/156/14 92/155/14 94/157/14 93/158/14
f 93/158/15 94/157/15 96/159/15 95/160/15
f 95/160/16 96/159/16 98/161/16 97/162/16
f 97/162/17 98/161/17 100/163/17 99/164/17
f 99/164/18 100/163/18 102/165/18 101/166/18
f 101/166/19 102/165/19 104/167/19 103/168/19
f 103/168/20 104/167/20 106/169/20 105/170/20
f 105/170/21 106/169/21 108/171/21 107/172/21
f 107/172/22 108/171/22 110/173/22 109/174/22
f 109/174/23 110/173/23 112/175/23 111/176/23
f 111/176/24 112/175/24 114/177/24 113/178/24
f 113/178/25 114/177/25 116/179/25 115/180/25
f 115/180/26 116/179/26 118/181/26 117/182/26
f 117/182/27 118/181/27 120/183/27 119/184/27
f 119/184/28 120/183/28 122/185/28 121/186/28
f 121/186/29 122/185/29 124/187/29 123/188/29
f 123/188/30 124/187/30 126/189/30 125/190/30
f 68/191/31 66/192/31 128/193/31 126/194/31 124/195/31 122/196/31 120/197/31 118/198/31 116/199/31 114/200/31 112/201/31 110/202/31 108/203/31 106/204/31 104/205/31 102/206/31 100/207/31 98/208/31 96/209/31 94/210/31 92/211/31 90/212/31 88/213/31 86/214/31 84/215/31 82/216/31 80/217/31 78/218/31 76/219/31 74/220/31 72/221/31 70/222/31
f 125/190/32 126/189/32 128/223/32 127/224/32
f 127/224/33 128/223/33 66/130/33 65/129/33
f 65/225/34 67/226/34 69/227/34 71/228/34 73/229/34 75/230/34 77/231/34 79/232/34 81/233/34 83/234/34 85/235/34 87/236/34 89/237/34 91/238/34 93/239/34 95/240/34 97/241/34 99/242/34 101/243/34 103/244/34 105/245/34 107/246/34 109/247/34 111/248/34 113/249/34 115/250/34 117/251/34 119/252/34 121/253/34 123/254/34 125/255/34 127/256/34
f 161/257/35 129/258/35 130/259/35 162/260/35
f 162/260/36 130/259/36 131/261/36 163/262/36
f 163/262/37 131/261/37 132/263/37 164/264/37
f 164/264/38 132/263/38 133/265/38 165/266/38
f 165/266/39 133/265/39 134/267/39 166/268/39
f 166/268/40 134/267/40 135/269/40 167/270/40
f 167/270/41 135/269/41 136/271/41 168/272/41
f 168/272/42 136/271/42 137/273/42 169/274/42
f 169/274/43 137/273/43 138/275/43 170/276/43
f 170/276/44 138/275/44 139/277/44 171/278/44
f 171/278/45 139/277/45 140/279/45 172/280/45
f 172/280/46 140/279/46 141/281/46 173/282/46
f 173/282/47 141/281/47 142/283/47 174/284/47
f 174/284/48 142/283/48 143/285/48 175/286/48
f 175/286/49 143/285/49 144/287/49 176/288/49
f 176/288/50 144/287/50 145/289/50 177/290/50
f 177/290/51 145/289/51 146/291/51 178/292/51
f 178/292/52 146/291/52 147/293/52 179/294/52
f 179/294/53 147/293/53 148/295/53 180/296/53
f 180/296/54 148/295/54 149/297/54 181/298/54
f 181/298/55 149/297/55 150/299/55 182/300/55
f 182/300/56 150/299/56 151/301/56 183/302/56
f 183/302/57 151/301/57 152/303/57 184/304/57
f 184/304/58 152/303/58 153/305/58 185/306/58
f 185/306/59 153/305/59 154/307/59 186/308/59
f 186/308/60 154/307/60 155/309/60 187/310/60
f 187/310/61 155/309/61 156/311/61 188/312/61
f 188/312/62 156/311/62 157/313/62 189/314/62
f 189/314/63 157/313/63 158/315/63 190/316/63
f 190/316/64 158/315/64 159/317/64 191/318/64
f 160/319/65 159/317/65 223/320/65 224/321/65
f 191/318/66 159/317/66 160/319/66 192/322/66
f 192/322/67 160/319/67 129/258/67 161/257/67
f 480/323/33 192/322/33 161/257/33 449/324/33
f 479/325/32 191/318/32 192/322/32 480/323/32
f 478/326/30 190/316/30 191/318/30 479/325/30
f 477/327/29 189/314/29 190/316/29 478/326/29
f 476/328/28 188/312/28 189/314/28 477/327/28
f 475/329/27 187/310/27 188/312/27 476/328/27
f 474/330/26 186/308/26 187/310/26 475/329/26
f 473/331/25 185/306/25 186/308/25 474/330/25
f 472/332/24 184/304/24 185/306/24 473/331/24
f 471/333/23 183/302/23 184/304/23 472/332/23
f 470/334/22 182/300/22 183/302/22 471/333/22
f 469/335/21 181/298/21 182/300/21 470/334/21
f 468/336/20 180/296/20 181/298/20 469/335/20
f 467/337/19 179/294/19 180/296/19 468/336/19
f 466/338/18 178/292/18 179/294/18 467/337/18
f 465/339/17 177/290/17 178/292/17 466/338/17
f 464/340/16 176/288/16 177/290/16 465/339/16
f 463/341/15 175/286/15 176/288/15 464/340/15
f 462/342/14 174/284/14 175/286/14 463/341/14
f 461/343/13 173/282/13 174/284/13 462/342/13
f 460/344/12 172/280/12 173/282/12 461/343/12
f 459/345/11 171/278/11 172/280/11 460/344/11
f 458/346/10 170/276/10 171/278/10 459/345/10
f 457/347/9 169/274/9 170/276/9 458/346/9
f 456/348/8 168/272/8 169/274/8 457/347/8
f 455/349/7 167/270/7 168/272/7 456/348/7
f 454/350/6 166/268/6 167/270/6 455/349/6
f 453/351/5 165/266/5 166/268/5 454/350/5
f 452/352/4 164/264/4 165/266/4 453/351/4
f 451/353/3 163/262/3 164/264/3 452/352/3
f 450/354/2 162/260/2 163/262/2 451/353/2
f 449/324/1 161/257/1 162/260/1 450/354/1
f 194/355/16 224/356/16 256/357/16 226/358/16
f 157/313/68 156/311/68 220/359/68 221/360/68
f 154/307/69 153/305/69 217/361/69 218/362/69
f 151/301/70 150/299/70 214/363/70 215/364/70
f 149/297/71 148/295/71 212/365/71 213/366/71
f 146/291/72 145/289/72 209/367/72 210/368/72
f 152/303/73 151/301/73 215/364/73 216/369/73
f 143/285/74 142/283/74 206/370/74 207/371/74
f 138/275/75 137/273/75 201/372/75 202/373/75
f 144/287/76 143/285/76 207/371/76 208/374/76
f 135/269/77 134/267/77 198/375/77 199/376/77
f 141/281/78 140/279/78 204/377/78 205/378/78
f 136/271/79 135/269/79 199/376/79 200/379/79
f 133/265/80 132/263/80 196/380/80 197/381/80
f 130/259/81 129/258/81 194/382/81 193/383/81
f 129/258/82 160/319/82 224/321/82 194/382/82
f 158/315/83 157/313/83 221/360/83 222/384/83
f 155/309/84 154/307/84 218/362/84 219/385/84
f 153/305/85 152/303/85 216/369/85 217/361/85
f 150/299/86 149/297/86 213/366/86 214/363/86
f 156/311/87 155/309/87 219/385/87 220/359/87
f 147/293/88 146/291/88 210/368/88 211/386/88
f 142/283/89 141/281/89 205/378/89 206/370/89
f 148/295/90 147/293/90 211/386/90 212/365/90
f 139/277/91 138/275/91 202/373/91 203/387/91
f 145/289/92 144/287/92 208/374/92 209/367/92
f 134/267/93 133/265/93 197/381/93 198/375/93
f 140/279/94 139/277/94 203/387/94 204/377/94
f 131/261/95 130/259/95 193/383/95 195/388/95
f 137/273/96 136/271/96 200/379/96 201/372/96
f 132/263/97 131/261/97 195/388/97 196/380/97
f 159/317/98 158/315/98 222/384/98 223/320/98
f 225/389/31 226/358/31 256/357/31 255/390/31 254/391/31 253/392/31 252/393/31 251/394/31 250/395/31 249/396/31 248/397/31 247/398/31 246/399/31 245/400/31 244/401/31 243/402/31 242/403/31 241/404/31 240/405/31 239/406/31 238/407/31 237/408/31 236/409/31 235/410/31 234/411/31 233/412/31 232/413/31 231/414/31 230/415/31 229/416/31 228/417/31 227/418/31
f 207/419/30 206/420/30 238/407/30 239/406/30
f 216/421/7 215/422/7 247/398/7 248/397/7
f 201/423/24 200/424/24 232/413/24 233/412/24
f 210/425/1 209/426/1 241/404/1 242/403/1
f 220/427/11 219/428/11 251/394/11 252/393/11
f 211/429/2 210/425/2 242/403/2 243/402/2
f 196/430/19 195/431/19 227/418/19 228/417/19
f 214/432/5 213/433/5 245/400/5 246/399/5
f 205/434/28 204/435/28 236/409/28 237/408/28
f 224/356/15 223/436/15 255/390/15 256/357/15
f 215/422/6 214/432/6 246/399/6 247/398/6
f 200/424/23 199/437/23 231/414/23 232/413/23
f 218/438/9 217/439/9 249/396/9 250/395/9
f 209/426/33 208/440/33 240/405/33 241/404/33
f 193/441/17 194/355/17 226/358/17 225/389/17
f 219/428/10 218/438/10 250/395/10 251/394/10
f 222/442/13 221/443/13 253/392/13 254/391/13
f 195/431/18 193/441/18 225/389/18 227/418/18
f 213/433/4 212/444/4 244/401/4 245/400/4
f 204/435/27 203/445/27 235/410/27 236/409/27
f 198/446/21 197/447/21 229/416/21 230/415/21
f 223/436/14 222/442/14 254/391/14 255/390/14
f 217/439/8 216/421/8 248/397/8 249/396/8
f 208/440/32 207/419/32 239/406/32 240/405/32
f 199/437/22 198/446/22 230/415/22 231/414/22
f 202/448/25 201/423/25 233/412/25 234/411/25
f 212/444/3 211/429/3 243/402/3 244/401/3
f 203/445/26 202/448/26 234/411/26 235/410/26
f 221/443/12 220/427/12 252/393/12 253/392/12
f 206/420/29 205/434/29 237/408/29 238/407/29
f 197/447/20 196/430/20 228/417/20 229/416/20
f 289/449/99 290/450/99 258/451/99 257/452/99
f 290/450/100 291/453/100 259/454/100 258/451/100
f 291/453/101 292/455/101 260/456/101 259/454/101
f 292/457/102 293/458/102 261/459/102 260/456/102
f 293/458/103 294/460/103 262/461/103 261/459/103
f 294/460/104 295/462/104 263/463/104 262/461/104
f 295/462/105 296/464/105 264/465/105 263/463/105
f 296/464/106 297/466/106 265/467/106 264/465/106
f 297/466/107 298/468/107 266/469/107 265/467/107
f 298/468/108 299/470/108 267/471/108 266/469/108
f 299/470/109 300/472/109 268/473/109 267/471/109
f 300/472/110 301/474/110 269/475/110 268/473/110
f 301/474/111 302/476/111 270/477/111 269/475/111
f 302/476/112 303/478/112 271/479/112 270/477/112
f 303/478/113 304/480/113 272/481/113 271/479/113
f 304/480/114 305/482/114 273/483/114 272/481/114
f 305/482/115 306/484/115 274/485/115 273/483/115
f 306/484/116 307/486/116 275/487/116 274/485/116
f 307/486/117 308/488/117 276/489/117 275/487/117
f 308/488/118 309/490/118 277/491/118 276/489/118
f 309/490/119 310/492/119 278/493/119 277/491/119
f 310/492/120 311/494/120 279/495/120 278/493/120
f 311/494/121 312/496/121 280/497/121 279/495/121
f 312/496/122 313/498/122 281/499/122 280/497/122
f 313/498/123 314/500/123 282/501/123 281/499/123
f 314/500/124 315/502/124 283/503/124 282/501/124
f 315/502/125 316/504/125 284/505/125 283/503/125
f 316/504/126 317/506/126 285/507/126 284/505/126
f 317/506/127 318/508/127 286/509/127 285/507/127
f 318/508/128 319/510/128 287/511/128 286/509/128
f 288/512/129 352/513/129 351/514/129 287/511/129
f 319/510/130 320/515/130 288/512/130 287/511/130
f 320/515/131 289/449/131 257/452/131 288/512/131
f 448/516/33 417/517/33 289/449/33 320/515/33
f 447/518/32 448/516/32 320/515/32 319/510/32
f 446/519/30 447/518/30 319/510/30 318/508/30
f 445/520/29 446/519/29 318/508/29 317/506/29
f 444/521/28 445/520/28 317/506/28 316/504/28
f 443/522/27 444/521/27 316/504/27 315/502/27
f 442/523/26 443/522/26 315/502/26 314/500/26
f 441/524/25 442/523/25 314/500/25 313/498/25
f 440/525/24 441/524/24 313/498/24 312/496/24
f 439/526/23 440/525/23 312/496/23 311/494/23
f 438/527/22 439/526/22 311/494/22 310/492/22
f 437/528/21 438/527/21 310/492/21 309/490/21
f 436/529/20 437/528/20 309/490/20 308/488/20
f 435/530/19 436/529/19 308/488/19 307/486/19
f 434/531/18 435/530/18 307/486/18 306/484/18
f 433/532/17 434/531/17 306/484/17 305/482/17
f 432/533/16 433/532/16 305/482/16 304/480/16
f 431/534/15 432/533/15 304/480/15 303/478/15
f 430/535/14 431/534/14 303/478/14 302/476/14
f 429/536/13 430/535/13 302/476/13 301/474/13
f 428/537/12 429/536/12 301/474/12 300/472/12
f 427/538/11 428/537/11 300/472/11 299/470/11
f 426/539/10 427/538/10 299/470/10 298/468/10
f 425/540/9 426/539/9 298/468/9 297/466/9
f 424/541/8 425/540/8 297/466/8 296/464/8
f 423/542/7 424/541/7 296/464/7 295/462/7
f 422/543/6 423/542/6 295/462/6 294/460/6
f 421/544/5 422/543/5 294/460/5 293/458/5
f 420/545/4 421/544/4 293/458/4 292/457/4
f 419/546/3 420/547/3 292/455/3 291/453/3
f 418/548/2 419/546/2 291/453/2 290/450/2
f 417/517/1 418/548/1 290/450/1 289/449/1
f 322/549/16 354/550/16 384/551/16 352/513/16
f 285/507/132 349/552/132 348/553/132 284/505/132
f 282/501/133 346/554/133 345/555/133 281/499/133
f 279/495/134 343/556/134 342/557/134 278/493/134
f 277/491/135 341/558/135 340/559/135 276/489/135
f 274/485/136 338/560/136 337/561/136 273/483/136
f 280/497/137 344/562/137 343/556/137 279/495/137
f 271/479/138 335/563/138 334/564/138 270/477/138
f 266/469/139 330/565/139 329/566/139 265/467/139
f 272/481/140 336/567/140 335/563/140 271/479/140
f 263/463/141 327/568/141 326/569/141 262/461/141
f 269/475/142 333/570/142 332/571/142 268/473/142
f 264/465/143 328/572/143 327/568/143 263/463/143
f 261/459/144 325/573/144 324/574/144 260/456/144
f 258/451/145 321/575/145 322/549/145 257/452/145
f 257/452/146 322/549/146 352/513/146 288/512/146
f 286/509/147 350/576/147 349/552/147 285/507/147
f 283/503/148 347/577/148 346/554/148 282/501/148
f 281/499/149 345/555/149 344/562/149 280/497/149
f 278/493/150 342/557/150 341/558/150 277/491/150
f 284/505/151 348/553/151 347/577/151 283/503/151
f 275/487/152 339/578/152 338/560/152 274/485/152
f 270/477/153 334/564/153 333/570/153 269/475/153
f 276/489/154 340/559/154 339/578/154 275/487/154
f 267/471/155 331/579/155 330/565/155 266/469/155
f 273/483/156 337/561/156 336/567/156 272/481/156
f 262/461/157 326/569/157 325/573/157 261/459/157
f 268/473/158 332/571/158 331/579/158 267/471/158
f 259/454/159 323/580/159 321/575/159 258/451/159
f 265/467/160 329/566/160 328/572/160 264/465/160
f 260/456/161 324/574/161 323/580/161 259/454/161
f 287/511/162 351/514/162 350/576/162 286/509/162
f 353/581/34 355/582/34 356/583/34 357/584/34 358/585/34 359/586/34 360/587/34 361/588/34 362/589/34 363/590/34 364/591/34 365/592/34 366/593/34 367/594/34 368/595/34 369/596/34 370/597/34 371/598/34 372/599/34 373/600/34 374/601/34 375/602/34 376/603/34 377/604/34 378/605/34 379/606/34 380/607/34 381/608/34 382/609/34 383/610/34 384/611/34 354/612/34
f 335/563/30 367/613/30 366/614/30 334/564/30
f 344/562/7 376/615/7 375/616/7 343/556/7
f 329/566/24 361/617/24 360/618/24 328/572/24
f 338/560/1 370/619/1 369/620/1 337/561/1
f 348/553/11 380/621/11 379/622/11 347/577/11
f 339/578/2 371/623/2 370/619/2 338/560/2
f 324/574/19 356/624/19 355/625/19 323/580/19
f 342/557/5 374/626/5 373/627/5 341/558/5
f 333/570/28 365/628/28 364/629/28 332/571/28
f 352/513/15 384/551/15 383/630/15 351/514/15
f 343/556/6 375/616/6 374/626/6 342/557/6
f 328/572/23 360/618/23 359/631/23 327/568/23
f 346/554/9 378/632/9 377/633/9 345/555/9
f 337/561/33 369/620/33 368/634/33 336/567/33
f 321/575/17 353/635/17 354/550/17 322/549/17
f 347/577/10 379/622/10 378/632/10 346/554/10
f 350/576/13 382/636/13 381/637/13 349/552/13
f 323/580/18 355/625/18 353/635/18 321/575/18
f 341/558/4 373/627/4 372/638/4 340/559/4
f 332/571/27 364/629/27 363/639/27 331/579/27
f 326/569/21 358/640/21 357/641/21 325/573/21
f 351/514/14 383/630/14 382/636/14 350/576/14
f 345/555/8 377/633/8 376/615/8 344/562/8
f 336/567/32 368/634/32 367/613/32 335/563/32
f 327/568/22 359/631/22 358/640/22 326/569/22
f 330/565/25 362/642/25 361/617/25 329/566/25
f 340/559/3 372/638/3 371/623/3 339/578/3
f 331/579/26 363/639/26 362/642/26 330/565/26
f 349/552/12 381/637/12 380/621/12 348/553/12
f 334/564/29 366/614/29 365/628/29 333/570/29
f 325/573/20 357/641/20 356/624/20 324/574/20
f 385/643/1 386/644/1 418/548/1 417/517/1
f 386/644/2 387/645/2 419/546/2 418/548/2
f 387/645/3 388/646/3 420/547/3 419/546/3
f 388/646/4 389/647/4 421/544/4 420/545/4
f 389/647/5 390/648/5 422/543/5 421/544/5
f 390/648/6 391/649/6 423/542/6 422/543/6
f 391/649/7 392/650/7 424/541/7 423/542/7
f 392/650/8 393/651/8 425/540/8 424/541/8
f 393/651/9 394/652/9 426/539/9 425/540/9
f 394/652/10 395/653/10 427/538/10 426/539/10
f 395/653/11 396/654/11 428/537/11 427/538/11
f 396/654/12 397/655/12 429/536/12 428/537/12
f 397/655/13 398/656/13 430/535/13 429/536/13
f 398/656/14 399/657/14 431/534/14 430/535/14
f 399/657/15 400/658/15 432/533/15 431/534/15
f 400/658/16 401/659/16 433/532/16 432/533/16
f 401/659/17 402/660/17 434/531/17 433/532/17
f 402/660/18 403/661/18 435/530/18 434/531/18
f 403/661/19 404/662/19 436/529/19 435/530/19
f 404/662/20 405/663/20 437/528/20 436/529/20
f 405/663/21 406/664/21 438/527/21 437/528/21
f 406/664/22 407/665/22 439/526/22 438/527/22
f 407/665/23 408/666/23 440/525/23 439/526/23
f 408/666/24 409/667/24 441/524/24 440/525/24
f 409/667/25 410/668/25 442/523/25 441/524/25
f 410/668/26 411/669/26 443/522/26 442/523/26
f 411/669/27 412/670/27 444/521/27 443/522/27
f 412/670/28 413/671/28 445/520/28 444/521/28
f 413/671/29 414/672/29 446/519/29 445/520/29
f 414/672/30 415/673/30 447/518/30 446/519/30
f 415/673/32 416/674/32 448/516/32 447/518/32
f 416/674/33 385/643/33 417/517/33 448/516/33
f 385/643/1 449/324/1 450/354/1 386/644/1
f 386/644/2 450/354/2 451/353/2 387/645/2
f 387/645/3 451/353/3 452/352/3 388/646/3
f 388/646/4 452/352/4 453/351/4 389/647/4
f 389/647/5 453/351/5 454/350/5 390/648/5
f 390/648/6 454/350/6 455/349/6 391/649/6
f 391/649/7 455/349/7 456/348/7 392/650/7
f 392/650/8 456/348/8 457/347/8 393/651/8
f 393/651/9 457/347/9 458/346/9 394/652/9
f 394/652/10 458/346/10 459/345/10 395/653/10
f 395/653/11 459/345/11 460/344/11 396/654/11
f 396/654/12 460/344/12 461/343/12 397/655/12
f 397/655/13 461/343/13 462/342/13 398/656/13
f 398/656/14 462/342/14 463/341/14 399/657/14
f 399/657/15 463/341/15 464/340/15 400/658/15
f 400/658/16 464/340/16 465/339/16 401/659/16
f 401/659/17 465/339/17 466/338/17 402/660/17
f 402/660/18 466/338/18 467/337/18 403/661/18
f 403/661/19 467/337/19 468/336/19 404/662/19
f 404/662/20 468/336/20 469/335/20 405/663/20
f 405/663/21 469/335/21 470/334/21 406/664/21
f 406/664/22 470/334/22 471/333/22 407/665/22
f 407/665/23 471/333/23 472/332/23 408/666/23
f 408/666/24 472/332/24 473/331/24 409/667/24
f 409/667/25 473/331/25 474/330/25 410/668/25
f 410/668/26 474/330/26 475/329/26 411/669/26
f 411/669/27 475/329/27 476/328/27 412/670/27
f 412/670/28 476/328/28 477/327/28 413/671/28
f 413/671/29 477/327/29 478/326/29 414/672/29
f 414/672/30 478/326/30 479/325/30 415/673/30
f 415/673/32 479/325/32 480/323/32 416/674/32
f 416/674/33 480/323/33 449/324/33 385/643/33
