# Blender v2.78 (sub 4) OBJ File: 'BRUM.blend'
# www.blender.org
mtllib BRUM.mtl
o Cylinder
v -0.014095 0.651253 -1.096457
v -0.014095 0.765757 -1.096457
v 0.201870 0.651253 -1.075186
v 0.201870 0.765757 -1.075186
v 0.409535 0.651253 -1.012192
v 0.409535 0.765757 -1.012192
v 0.600921 0.651253 -0.909894
v 0.600921 0.765757 -0.909894
v 0.768672 0.651253 -0.772224
v 0.768672 0.765757 -0.772224
v 0.906342 0.651253 -0.604473
v 0.906342 0.765757 -0.604473
v 1.008639 0.651253 -0.413088
v 1.008639 0.765757 -0.413088
v 1.071634 0.651253 -0.205422
v 1.071634 0.765757 -0.205422
v 1.092905 0.651253 0.010543
v 1.092905 0.765757 0.010543
v 1.071634 0.651253 0.226508
v 1.071634 0.765757 0.226508
v 1.008639 0.651253 0.434174
v 1.008639 0.765757 0.434174
v 0.906342 0.651253 0.625559
v 0.906342 0.765757 0.625559
v 0.768672 0.651253 0.793310
v 0.768672 0.765757 0.793310
v 0.600921 0.651253 0.930980
v 0.600921 0.765757 0.930980
v 0.409535 0.651253 1.033278
v 0.409535 0.765757 1.033278
v 0.201869 0.651253 1.096273
v 0.201869 0.765757 1.096273
v -0.014096 0.651253 1.117543
v -0.014096 0.765757 1.117543
v -0.230061 0.651253 1.096273
v -0.230061 0.765757 1.096273
v -0.437727 0.651253 1.033278
v -0.437727 0.765757 1.033278
v -0.629112 0.651253 0.930980
v -0.629112 0.765757 0.930980
v -0.796863 0.651253 0.793310
v -0.796863 0.765757 0.793310
v -0.934533 0.651253 0.625559
v -0.934533 0.765757 0.625559
v -1.036831 0.651253 0.434173
v -1.036831 0.765757 0.434173
v -1.099825 0.651253 0.226507
v -1.099825 0.765757 0.226507
v -1.121096 0.651253 0.010542
v -1.121096 0.765757 0.010542
v -1.099825 0.651253 -0.205423
v -1.099825 0.765757 -0.205423
v -1.036830 0.651253 -0.413089
v -1.036830 0.765757 -0.413089
v -0.934532 0.651253 -0.604474
v -0.934532 0.765757 -0.604474
v -0.796862 0.651253 -0.772225
v -0.796862 0.765757 -0.772225
v -0.629111 0.651253 -0.909895
v -0.629111 0.765757 -0.909895
v -0.437725 0.651253 -1.012192
v -0.437725 0.765757 -1.012192
v -0.230059 0.651253 -1.075187
v -0.230059 0.765757 -1.075187
v -0.014095 1.373620 -1.096457
v -0.014095 1.488123 -1.096457
v 0.201870 1.373620 -1.075186
v 0.201870 1.488123 -1.075186
v 0.409535 1.373620 -1.012192
v 0.409535 1.488123 -1.012192
v 0.600921 1.373620 -0.909894
v 0.600921 1.488123 -0.909894
v 0.768672 1.373620 -0.772224
v 0.768672 1.488123 -0.772224
v 0.906342 1.373620 -0.604473
v 0.906342 1.488123 -0.604473
v 1.008639 1.373620 -0.413088
v 1.008639 1.488123 -0.413088
v 1.071634 1.373620 -0.205422
v 1.071634 1.488123 -0.205422
v 1.092905 1.373620 0.010543
v 1.092905 1.488123 0.010543
v 1.071634 1.373620 0.226508
v 1.071634 1.488123 0.226508
v 1.008639 1.373620 0.434174
v 1.008639 1.488123 0.434174
v 0.906342 1.373620 0.625559
v 0.906342 1.488123 0.625559
v 0.768672 1.373620 0.793310
v 0.768672 1.488123 0.793310
v 0.600921 1.373620 0.930980
v 0.600921 1.488123 0.930980
v 0.409535 1.373620 1.033278
v 0.409535 1.488123 1.033278
v 0.201869 1.373620 1.096273
v 0.201869 1.488123 1.096273
v -0.014096 1.373620 1.117543
v -0.014096 1.488123 1.117543
v -0.230061 1.373620 1.096273
v -0.230061 1.488123 1.096273
v -0.437727 1.373620 1.033278
v -0.437727 1.488123 1.033278
v -0.629112 1.373620 0.930980
v -0.629112 1.488123 0.930980
v -0.796863 1.373620 0.793310
v -0.796863 1.488123 0.793310
v -0.934533 1.373620 0.625559
v -0.934533 1.488123 0.625559
v -1.036831 1.373620 0.434173
v -1.036831 1.488123 0.434173
v -1.099825 1.373620 0.226507
v -1.099825 1.488123 0.226507
v -1.121096 1.373620 0.010542
v -1.121096 1.488123 0.010542
v -1.099825 1.373620 -0.205423
v -1.099825 1.488123 -0.205423
v -1.036830 1.373620 -0.413089
v -1.036830 1.488123 -0.413089
v -0.934532 1.373620 -0.604474
v -0.934532 1.488123 -0.604474
v -0.796862 1.373620 -0.772225
v -0.796862 1.488123 -0.772225
v -0.629111 1.373620 -0.909895
v -0.629111 1.488123 -0.909895
v -0.437725 1.373620 -1.012192
v -0.437725 1.488123 -1.012192
v -0.230059 1.373620 -1.075187
v -0.230059 1.488123 -1.075187
v 0.000000 2.047956 -0.910063
v 0.177544 2.047956 -0.892576
v 0.348266 2.047956 -0.840788
v 0.505604 2.047956 -0.756690
v 0.643512 2.047956 -0.643512
v 0.756690 2.047956 -0.505604
v 0.840788 2.047956 -0.348266
v 0.892576 2.047956 -0.177544
v 0.910063 2.047956 -0.000000
v 0.892576 2.047956 0.177544
v 0.840788 2.047956 0.348266
v 0.756690 2.047956 0.505604
v 0.643512 2.047956 0.643512
v 0.505604 2.047956 0.756690
v 0.348266 2.047956 0.840788
v 0.177544 2.047956 0.892576
v -0.000000 2.047956 0.910063
v -0.177545 2.047956 0.892576
v -0.348266 2.047956 0.840788
v -0.505604 2.047956 0.756689
v -0.643512 2.047956 0.643511
v -0.756690 2.047956 0.505603
v -0.840789 2.047956 0.348265
v -0.892576 2.047956 0.177544
v -0.910063 2.047956 -0.000001
v -0.892576 2.047956 -0.177545
v -0.840788 2.047956 -0.348267
v -0.756689 2.047956 -0.505605
v -0.643511 2.047956 -0.643512
v -0.505603 2.047956 -0.756690
v -0.348265 2.047956 -0.840789
v -0.177543 2.047956 -0.892576
v 0.000000 1.381289 -1.000000
v 0.195090 1.381289 -0.980785
v 0.382683 1.381289 -0.923880
v 0.555570 1.381289 -0.831470
v 0.707107 1.381289 -0.707107
v 0.831470 1.381289 -0.555570
v 0.923880 1.381289 -0.382683
v 0.980785 1.381289 -0.195090
v 1.000000 1.381289 -0.000000
v 0.980785 1.381289 0.195090
v 0.923880 1.381289 0.382683
v 0.831470 1.381289 0.555570
v 0.707107 1.381289 0.707107
v 0.555570 1.381289 0.831470
v 0.382683 1.381289 0.923880
v 0.195090 1.381289 0.980785
v -0.000000 1.381289 1.000000
v -0.195091 1.381289 0.980785
v -0.382684 1.381289 0.923879
v -0.555571 1.381289 0.831469
v -0.707107 1.381289 0.707106
v -0.831470 1.381289 0.555570
v -0.923880 1.381289 0.382683
v -0.980785 1.381289 0.195089
v -1.000000 1.381289 -0.000001
v -0.980785 1.381289 -0.195091
v -0.923879 1.381289 -0.382684
v -0.831469 1.381289 -0.555571
v -0.707106 1.381289 -0.707108
v -0.555569 1.381289 -0.831470
v -0.382682 1.381289 -0.923880
v -0.195089 1.381289 -0.980786
v 0.153678 2.097128 -0.772589
v 0.000000 2.097128 -0.787725
v 0.301449 2.097128 -0.727763
v 0.437637 2.097128 -0.654969
v 0.557006 2.097128 -0.557006
v 0.654969 2.097128 -0.437637
v 0.727763 2.097128 -0.301449
v 0.772589 2.097128 -0.153678
v 0.787725 2.097128 -0.000000
v 0.772589 2.097128 0.153677
v 0.727763 2.097128 0.301449
v 0.654969 2.097128 0.437636
v 0.557006 2.097128 0.557006
v 0.437637 2.097128 0.654969
v 0.301449 2.097128 0.727763
v 0.153677 2.097128 0.772589
v -0.000000 2.097128 0.787725
v -0.153678 2.097128 0.772589
v -0.301450 2.097128 0.727763
v -0.437637 2.097128 0.654969
v -0.557006 2.097128 0.557005
v -0.654970 2.097128 0.437636
v -0.727763 2.097128 0.301449
v -0.772589 2.097128 0.153677
v -0.787725 2.097128 -0.000001
v -0.772589 2.097128 -0.153678
v -0.727763 2.097128 -0.301450
v -0.654969 2.097128 -0.437637
v -0.557005 2.097128 -0.557006
v -0.437636 2.097128 -0.654970
v -0.301448 2.097128 -0.727763
v -0.153676 2.097128 -0.772589
v 0.153678 2.014061 -0.772589
v 0.000000 2.014061 -0.787725
v 0.301449 2.014061 -0.727763
v 0.437637 2.014061 -0.654969
v 0.557006 2.014061 -0.557006
v 0.654969 2.014061 -0.437637
v 0.727763 2.014061 -0.301449
v 0.772589 2.014061 -0.153678
v 0.787725 2.014061 -0.000000
v 0.772589 2.014061 0.153677
v 0.727763 2.014061 0.301449
v 0.654969 2.014061 0.437636
v 0.557006 2.014061 0.557006
v 0.437637 2.014061 0.654969
v 0.301449 2.014061 0.727763
v 0.153677 2.014061 0.772589
v -0.000000 2.014061 0.787725
v -0.153678 2.014061 0.772589
v -0.301450 2.014061 0.727763
v -0.437637 2.014061 0.654969
v -0.557006 2.014061 0.557005
v -0.654970 2.014061 0.437636
v -0.727763 2.014061 0.301449
v -0.772589 2.014061 0.153677
v -0.787725 2.014061 -0.000001
v -0.772589 2.014061 -0.153678
v -0.727763 2.014061 -0.301450
v -0.654969 2.014061 -0.437637
v -0.557005 2.014061 -0.557006
v -0.437636 2.014061 -0.654970
v -0.301448 2.014061 -0.727763
v -0.153676 2.014061 -0.772589
v 0.000000 0.047956 -0.910063
v 0.177544 0.047956 -0.892576
v 0.348266 0.047956 -0.840788
v 0.505604 0.047956 -0.756690
v 0.643512 0.047956 -0.643512
v 0.756690 0.047956 -0.505604
v 0.840788 0.047956 -0.348266
v 0.892576 0.047956 -0.177544
v 0.910063 0.047956 -0.000000
v 0.892576 0.047956 0.177544
v 0.840788 0.047956 0.348266
v 0.756690 0.047956 0.505604
v 0.643512 0.047956 0.643512
v 0.505604 0.047956 0.756690
v 0.348266 0.047956 0.840788
v 0.177544 0.047956 0.892576
v -0.000000 0.047956 0.910063
v -0.177545 0.047956 0.892576
v -0.348266 0.047956 0.840788
v -0.505604 0.047956 0.756689
v -0.643512 0.047956 0.643511
v -0.756690 0.047956 0.505603
v -0.840789 0.047956 0.348265
v -0.892576 0.047956 0.177544
v -0.910063 0.047956 -0.000001
v -0.892576 0.047956 -0.177545
v -0.840788 0.047956 -0.348267
v -0.756689 0.047956 -0.505605
v -0.643511 0.047956 -0.643512
v -0.505603 0.047956 -0.756690
v -0.348265 0.047956 -0.840789
v -0.177543 0.047956 -0.892576
v 0.000000 0.714623 -1.000000
v 0.195090 0.714623 -0.980785
v 0.382683 0.714623 -0.923880
v 0.555570 0.714623 -0.831470
v 0.707107 0.714623 -0.707107
v 0.831470 0.714623 -0.555570
v 0.923880 0.714623 -0.382683
v 0.980785 0.714623 -0.195090
v 1.000000 0.714623 -0.000000
v 0.980785 0.714623 0.195090
v 0.923880 0.714623 0.382683
v 0.831470 0.714623 0.555570
v 0.707107 0.714623 0.707107
v 0.555570 0.714623 0.831470
v 0.382683 0.714623 0.923880
v 0.195090 0.714623 0.980785
v -0.000000 0.714623 1.000000
v -0.195091 0.714623 0.980785
v -0.382684 0.714623 0.923879
v -0.555571 0.714623 0.831469
v -0.707107 0.714623 0.707106
v -0.831470 0.714623 0.555570
v -0.923880 0.714623 0.382683
v -0.980785 0.714623 0.195089
v -1.000000 0.714623 -0.000001
v -0.980785 0.714623 -0.195091
v -0.923879 0.714623 -0.382684
v -0.831469 0.714623 -0.555571
v -0.707106 0.714623 -0.707108
v -0.555569 0.714623 -0.831470
v -0.382682 0.714623 -0.923880
v -0.195089 0.714623 -0.980786
v 0.153678 -0.001216 -0.772589
v 0.000000 -0.001216 -0.787725
v 0.301449 -0.001216 -0.727763
v 0.437637 -0.001216 -0.654969
v 0.557006 -0.001216 -0.557006
v 0.654969 -0.001216 -0.437637
v 0.727763 -0.001216 -0.301449
v 0.772589 -0.001216 -0.153678
v 0.787725 -0.001216 -0.000000
v 0.772589 -0.001216 0.153677
v 0.727763 -0.001216 0.301449
v 0.654969 -0.001216 0.437636
v 0.557006 -0.001216 0.557006
v 0.437637 -0.001216 0.654969
v 0.301449 -0.001216 0.727763
v 0.153677 -0.001216 0.772589
v -0.000000 -0.001216 0.787725
v -0.153678 -0.001216 0.772589
v -0.301450 -0.001216 0.727763
v -0.437637 -0.001216 0.654969
v -0.557006 -0.001216 0.557005
v -0.654970 -0.001216 0.437636
v -0.727763 -0.001216 0.301449
v -0.772589 -0.001216 0.153677
v -0.787725 -0.001216 -0.000001
v -0.772589 -0.001216 -0.153678
v -0.727763 -0.001216 -0.301450
v -0.654969 -0.001216 -0.437637
v -0.557005 -0.001216 -0.557006
v -0.437636 -0.001216 -0.654970
v -0.301448 -0.001216 -0.727763
v -0.153676 -0.001216 -0.772589
v 0.153678 0.081851 -0.772589
v 0.000000 0.081851 -0.787725
v 0.301449 0.081851 -0.727763
v 0.437637 0.081851 -0.654969
v 0.557006 0.081851 -0.557006
v 0.654969 0.081851 -0.437637
v 0.727763 0.081851 -0.301449
v 0.772589 0.081851 -0.153678
v 0.787725 0.081851 -0.000000
v 0.772589 0.081851 0.153677
v 0.727763 0.081851 0.301449
v 0.654969 0.081851 0.437636
v 0.557006 0.081851 0.557006
v 0.437637 0.081851 0.654969
v 0.301449 0.081851 0.727763
v 0.153677 0.081851 0.772589
v -0.000000 0.081851 0.787725
v -0.153678 0.081851 0.772589
v -0.301450 0.081851 0.727763
v -0.437637 0.081851 0.654969
v -0.557006 0.081851 0.557005
v -0.654970 0.081851 0.437636
v -0.727763 0.081851 0.301449
v -0.772589 0.081851 0.153677
v -0.787725 0.081851 -0.000001
v -0.772589 0.081851 -0.153678
v -0.727763 0.081851 -0.301450
v -0.654969 0.081851 -0.437637
v -0.557005 0.081851 -0.557006
v -0.437636 0.081851 -0.654970
v -0.301448 0.081851 -0.727763
v -0.153676 0.081851 -0.772589
v 0.000000 1.047956 -1.000000
v 0.195090 1.047956 -0.980785
v 0.382683 1.047956 -0.923880
v 0.555570 1.047956 -0.831470
v 0.707107 1.047956 -0.707107
v 0.831470 1.047956 -0.555570
v 0.923880 1.047956 -0.382683
v 0.980785 1.047956 -0.195090
v 1.000000 1.047956 -0.000000
v 0.980785 1.047956 0.195090
v 0.923880 1.047956 0.382683
v 0.831470 1.047956 0.555570
v 0.707107 1.047956 0.707107
v 0.555570 1.047956 0.831470
v 0.382683 1.047956 0.923880
v 0.195090 1.047956 0.980785
v -0.000000 1.047956 1.000000
v -0.195091 1.047956 0.980785
v -0.382684 1.047956 0.923879
v -0.555571 1.047956 0.831469
v -0.707107 1.047956 0.707106
v -0.831470 1.047956 0.555570
v -0.923880 1.047956 0.382683
v -0.980785 1.047956 0.195089
v -1.000000 1.047956 -0.000001
v -0.980785 1.047956 -0.195091
v -0.923879 1.047956 -0.382684
v -0.831469 1.047956 -0.555571
v -0.707106 1.047956 -0.707108
v -0.555569 1.047956 -0.831470
v -0.382682 1.047956 -0.923880
v -0.195089 1.047956 -0.980786
v 0.000000 0.770869 -1.000000
v 0.195090 0.770869 -0.980785
v 0.382683 0.770869 -0.923880
v 0.555570 0.770869 -0.831470
v 0.707107 0.770869 -0.707107
v 0.831470 0.770869 -0.555570
v 0.923880 0.770869 -0.382683
v 0.980785 0.770869 -0.195090
v 1.000000 0.770869 -0.000000
v 0.980785 0.770869 0.195090
v 0.923880 0.770869 0.382683
v 0.831470 0.770869 0.555570
v 0.707107 0.770869 0.707107
v 0.555570 0.770869 0.831470
v 0.382683 0.770869 0.923880
v 0.195090 0.770869 0.980785
v -0.000000 0.770869 1.000000
v -0.195091 0.770869 0.980785
v -0.382684 0.770869 0.923879
v -0.555571 0.770869 0.831469
v -0.707107 0.770869 0.707106
v -0.831470 0.770869 0.555570
v -0.923880 0.770869 0.382683
v -0.980785 0.770869 0.195089
v -1.000000 0.770869 -0.000001
v -0.980785 0.770869 -0.195091
v -0.923879 0.770869 -0.382684
v -0.831469 0.770869 -0.555571
v -0.707106 0.770869 -0.707108
v -0.555569 0.770869 -0.831470
v -0.382682 0.770869 -0.923880
v -0.195089 0.770869 -0.980786
v 0.000000 1.366475 -1.000000
v 0.195090 1.366475 -0.980785
v 0.382683 1.366475 -0.923880
v 0.555570 1.366475 -0.831470
v 0.707107 1.366475 -0.707107
v 0.831470 1.366475 -0.555570
v 0.923880 1.366475 -0.382683
v 0.980785 1.366475 -0.195090
v 1.000000 1.366475 -0.000000
v 0.980785 1.366475 0.195090
v 0.923880 1.366475 0.382683
v 0.831470 1.366475 0.555570
v 0.707107 1.366475 0.707107
v 0.555570 1.366475 0.831470
v 0.382683 1.366475 0.923880
v 0.195090 1.366475 0.980785
v -0.000000 1.366475 1.000000
v -0.195091 1.366475 0.980785
v -0.382684 1.366475 0.923879
v -0.555571 1.366475 0.831469
v -0.707107 1.366475 0.707106
v -0.831470 1.366475 0.555570
v -0.923880 1.366475 0.382683
v -0.980785 1.366475 0.195089
v -1.000000 1.366475 -0.000001
v -0.980785 1.366475 -0.195091
v -0.923879 1.366475 -0.382684
v -0.831469 1.366475 -0.555571
v -0.707106 1.366475 -0.707108
v -0.555569 1.366475 -0.831470
v -0.382682 1.366475 -0.923880
v -0.195089 1.366475 -0.980786
vt 0.057741 0.537744
vt 0.049341 0.527206
vt 0.071500 0.512537
vt 0.077697 0.524524
vt 0.096115 0.502458
vt 0.099867 0.515427
vt 0.122216 0.497360
vt 0.123387 0.510800
vt 0.148762 0.497404
vt 0.147348 0.510789
vt 0.174709 0.502463
vt 0.170862 0.515321
vt 0.199152 0.512112
vt 0.192990 0.523915
vt 0.221156 0.526254
vt 0.212829 0.536564
vt 0.239862 0.544433
vt 0.229674 0.552852
vt 0.254537 0.565937
vt 0.242882 0.572136
vt 0.264609 0.589939
vt 0.251942 0.593678
vt 0.269692 0.615499
vt 0.256500 0.616639
vt 0.269610 0.641649
vt 0.256405 0.640150
vt 0.264344 0.667364
vt 0.251653 0.663273
vt 0.254062 0.691599
vt 0.242397 0.685063
vt 0.239158 0.713378
vt 0.228987 0.704651
vt 0.220220 0.731833
vt 0.211944 0.721260
vt 0.198002 0.746237
vt 0.191936 0.734242
vt 0.173408 0.756061
vt 0.169742 0.743125
vt 0.147451 0.761071
vt 0.146182 0.747676
vt 0.121098 0.761423
vt 0.122246 0.748089
vt 0.095258 0.756951
vt 0.098905 0.744171
vt 0.070877 0.747534
vt 0.076959 0.735771
vt 0.048909 0.733484
vt 0.057200 0.723195
vt 0.030220 0.715360
vt 0.040396 0.706950
vt 0.015539 0.693862
vt 0.027202 0.687659
vt 0.005428 0.669836
vt 0.018132 0.666067
vt 0.000236 0.644179
vt 0.013480 0.642990
vt 0.000237 0.617920
vt 0.013493 0.619381
vt 0.005449 0.592112
vt 0.018190 0.596174
vt 0.015674 0.567782
vt 0.027398 0.574286
vt 0.403568 0.983600
vt 0.379646 0.983600
vt 0.356183 0.978933
vt 0.334082 0.969779
vt 0.314192 0.956488
vt 0.297277 0.939573
vt 0.283986 0.919683
vt 0.274832 0.897581
vt 0.270165 0.874119
vt 0.270165 0.850197
vt 0.274832 0.826735
vt 0.283987 0.804634
vt 0.297277 0.784744
vt 0.314193 0.767828
vt 0.334083 0.754538
vt 0.356184 0.745384
vt 0.379646 0.740717
vt 0.403568 0.740717
vt 0.427030 0.745384
vt 0.449132 0.754538
vt 0.469022 0.767829
vt 0.485937 0.784744
vt 0.499228 0.804634
vt 0.508382 0.826735
vt 0.513049 0.850197
vt 0.513049 0.874119
vt 0.508382 0.897581
vt 0.499228 0.919682
vt 0.485938 0.939573
vt 0.469022 0.956488
vt 0.449132 0.969779
vt 0.427031 0.978933
vt 0.030500 0.545876
vt 0.040764 0.554564
vt 0.557550 0.524472
vt 0.577440 0.511182
vt 0.599541 0.502027
vt 0.623003 0.497360
vt 0.646925 0.497360
vt 0.670388 0.502028
vt 0.692488 0.511182
vt 0.712379 0.524472
vt 0.729294 0.541388
vt 0.742585 0.561278
vt 0.751739 0.583379
vt 0.756406 0.606841
vt 0.756406 0.630763
vt 0.751739 0.654225
vt 0.742585 0.676326
vt 0.729295 0.696217
vt 0.712379 0.713132
vt 0.692489 0.726422
vt 0.670388 0.735577
vt 0.646925 0.740244
vt 0.623003 0.740244
vt 0.599541 0.735577
vt 0.577440 0.726422
vt 0.557549 0.713132
vt 0.540634 0.696216
vt 0.527343 0.676326
vt 0.518189 0.654225
vt 0.513522 0.630762
vt 0.513522 0.606840
vt 0.518189 0.583378
vt 0.527344 0.561277
vt 0.540634 0.541387
vt 0.666627 0.264185
vt 0.662867 0.251324
vt 0.684827 0.242192
vt 0.691052 0.254087
vt 0.704612 0.228904
vt 0.713060 0.239368
vt 0.721448 0.211975
vt 0.731792 0.220600
vt 0.734677 0.192059
vt 0.746517 0.198509
vt 0.743786 0.169927
vt 0.756662 0.173951
vt 0.748419 0.146435
vt 0.761835 0.147878
vt 0.748398 0.122491
vt 0.761835 0.121297
vt 0.743726 0.099021
vt 0.756663 0.095238
vt 0.734584 0.076932
vt 0.746522 0.070708
vt 0.721330 0.057080
vt 0.731808 0.048657
vt 0.704484 0.040232
vt 0.713094 0.029940
vt 0.684704 0.027041
vt 0.691114 0.015283
vt 0.662767 0.018016
vt 0.666728 0.005252
vt 0.639534 0.013504
vt 0.640894 0.000236
vt 0.615921 0.013675
vt 0.614630 0.000427
vt 0.592859 0.018516
vt 0.588970 0.005811
vt 0.571259 0.027830
vt 0.564929 0.016170
vt 0.551978 0.041241
vt 0.543460 0.031090
vt 0.535782 0.058213
vt 0.525417 0.049977
vt 0.523317 0.078065
vt 0.511528 0.072076
vt 0.515074 0.100022
vt 0.502364 0.096473
vt 0.511367 0.123434
vt 0.498128 0.122054
vt 0.510490 0.147053
vt 0.497372 0.147799
vt 0.514332 0.170128
vt 0.501562 0.173449
vt 0.522721 0.191988
vt 0.510844 0.197815
vt 0.535333 0.211763
vt 0.524843 0.219862
vt 0.551664 0.228648
vt 0.542988 0.238692
vt 0.571065 0.241960
vt 0.564552 0.253549
vt 0.592768 0.251166
vt 0.588679 0.263841
vt 0.615914 0.255894
vt 0.614414 0.269154
vt 0.890282 0.740244
vt 0.866360 0.740244
vt 0.842898 0.735577
vt 0.820797 0.726422
vt 0.800906 0.713132
vt 0.783991 0.696216
vt 0.770701 0.676326
vt 0.761546 0.654225
vt 0.756879 0.630762
vt 0.756879 0.606840
vt 0.761546 0.583378
vt 0.770701 0.561277
vt 0.783991 0.541387
vt 0.800907 0.524472
vt 0.820797 0.511182
vt 0.842898 0.502027
vt 0.866360 0.497360
vt 0.890282 0.497360
vt 0.913745 0.502027
vt 0.935846 0.511182
vt 0.955736 0.524472
vt 0.972651 0.541387
vt 0.985942 0.561277
vt 0.995096 0.583378
vt 0.999763 0.606840
vt 0.999764 0.630762
vt 0.995097 0.654225
vt 0.985942 0.676326
vt 0.972652 0.696216
vt 0.955736 0.713132
vt 0.935846 0.726422
vt 0.913745 0.735577
vt 0.639591 0.255949
vt 0.640742 0.269272
vt 0.314193 0.524472
vt 0.334083 0.511182
vt 0.356184 0.502027
vt 0.379646 0.497360
vt 0.403568 0.497360
vt 0.427030 0.502028
vt 0.449131 0.511182
vt 0.469022 0.524472
vt 0.485937 0.541388
vt 0.499227 0.561278
vt 0.508382 0.583379
vt 0.513049 0.606841
vt 0.513049 0.630763
vt 0.508382 0.654225
vt 0.499228 0.676326
vt 0.485937 0.696217
vt 0.469022 0.713132
vt 0.449132 0.726422
vt 0.427031 0.735577
vt 0.403568 0.740244
vt 0.379646 0.740244
vt 0.356183 0.735577
vt 0.334082 0.726422
vt 0.314192 0.713132
vt 0.297277 0.696216
vt 0.283986 0.676326
vt 0.274832 0.654225
vt 0.270165 0.630762
vt 0.270165 0.606840
vt 0.274832 0.583378
vt 0.283987 0.561277
vt 0.297277 0.541387
vt 0.312127 0.323891
vt 0.383679 0.412373
vt 0.348982 0.435657
vt 0.296089 0.334885
vt 0.310380 0.451704
vt 0.278193 0.342548
vt 0.269374 0.459882
vt 0.259122 0.346554
vt 0.227561 0.459867
vt 0.239631 0.346720
vt 0.186574 0.451665
vt 0.220516 0.343073
vt 0.148006 0.435606
vt 0.202505 0.335774
vt 0.113348 0.412326
vt 0.186281 0.325111
vt 0.083930 0.382740
vt 0.172461 0.311495
vt 0.060877 0.348000
vt 0.161571 0.295451
vt 0.045060 0.309455
vt 0.154025 0.277595
vt 0.037073 0.268590
vt 0.150110 0.258613
vt 0.037206 0.226976
vt 0.149975 0.239234
vt 0.045440 0.186207
vt 0.153620 0.220202
vt 0.061448 0.147838
vt 0.160904 0.202246
vt 0.084610 0.113332
vt 0.171545 0.186053
vt 0.114035 0.084000
vt 0.185133 0.172240
vt 0.148596 0.060956
vt 0.201147 0.161336
vt 0.186974 0.045078
vt 0.218974 0.153756
vt 0.227705 0.036968
vt 0.237933 0.149791
vt 0.269236 0.036937
vt 0.257297 0.149591
vt 0.309984 0.044989
vt 0.276326 0.153167
vt 0.348391 0.060821
vt 0.294291 0.160381
vt 0.382990 0.083834
vt 0.310506 0.170959
vt 0.412454 0.113154
vt 0.324347 0.184498
vt 0.435650 0.147668
vt 0.335284 0.200481
vt 0.451684 0.186059
vt 0.342895 0.218296
vt 0.459931 0.226861
vt 0.346886 0.237260
vt 0.460064 0.268514
vt 0.347101 0.256648
vt 0.452063 0.309418
vt 0.343529 0.275714
vt 0.436221 0.348000
vt 0.336305 0.293727
vt 0.413134 0.382769
vt 0.468879 0.365552
vt 0.441754 0.406380
vt 0.325703 0.309994
vt 0.314667 0.301031
vt 0.303046 0.312939
vt 0.323741 0.287094
vt 0.329921 0.271662
vt 0.332972 0.255329
vt 0.332779 0.238723
vt 0.329351 0.222480
vt 0.322822 0.207226
vt 0.313444 0.193544
vt 0.301579 0.181957
vt 0.287682 0.172910
vt 0.272286 0.166746
vt 0.255980 0.163701
vt 0.239390 0.163890
vt 0.223149 0.167306
vt 0.207879 0.173817
vt 0.194165 0.183174
vt 0.182531 0.195020
vt 0.173425 0.208903
vt 0.167196 0.224292
vt 0.164087 0.240598
vt 0.164217 0.257197
vt 0.167585 0.273451
vt 0.174064 0.288736
vt 0.183405 0.302464
vt 0.195254 0.314108
vt 0.209157 0.323219
vt 0.224587 0.329448
vt 0.240958 0.332561
vt 0.257657 0.332444
vt 0.273999 0.328949
vt 0.289319 0.322364
vt 0.619121 0.458513
vt 0.600933 0.462227
vt 0.599883 0.452693
vt 0.616185 0.449391
vt 0.496758 0.223313
vt 0.496899 0.272219
vt 0.441070 0.089801
vt 0.468284 0.130329
vt 0.320833 0.009719
vt 0.365902 0.028330
vt 0.224272 0.000237
vt 0.273015 0.000236
vt 0.090820 0.055315
vt 0.131406 0.028311
vt 0.406500 0.055365
vt 0.010180 0.175188
vt 0.029022 0.130174
vt 0.055076 0.406002
vt 0.028060 0.365166
vt 0.056251 0.089705
vt 0.175540 0.487130
vt 0.130254 0.468205
vt 0.000236 0.271887
vt 0.000455 0.223034
vt 0.089579 0.440802
vt 0.272816 0.496887
vt 0.223685 0.496823
vt 0.407144 0.441145
vt 0.366371 0.468483
vt 0.487493 0.320248
vt 0.487091 0.175406
vt 0.176462 0.009715
vt 0.009550 0.319879
vt 0.321006 0.487314
vt 0.631484 0.442887
vt 0.583227 0.452660
vt 0.566879 0.449288
vt 0.551487 0.442704
vt 0.537645 0.433153
vt 0.525826 0.421050
vt 0.516569 0.406836
vt 0.510249 0.391051
vt 0.507122 0.374310
vt 0.507307 0.357262
vt 0.510776 0.340562
vt 0.517342 0.324815
vt 0.526498 0.310597
vt 0.538130 0.298541
vt 0.551871 0.289078
vt 0.567182 0.282568
vt 0.583471 0.279269
vt 0.600100 0.279312
vt 0.616436 0.282695
vt 0.631858 0.289272
vt 0.645746 0.298791
vt 0.657521 0.310896
vt 0.666710 0.325118
vt 0.672948 0.340904
vt 0.675991 0.357639
vt 0.675742 0.374681
vt 0.672267 0.391415
vt 0.665985 0.407206
vt 0.656858 0.421376
vt 0.645186 0.433424
vt 0.600984 0.269755
vt 0.619214 0.273472
vt 0.497372 0.375262
vt 0.497558 0.356307
vt 0.682315 0.338121
vt 0.685731 0.356728
vt 0.547164 0.280714
vt 0.564247 0.273446
vt 0.531468 0.440640
vt 0.518292 0.427220
vt 0.531839 0.291262
vt 0.664483 0.427312
vt 0.651476 0.440703
vt 0.501405 0.337766
vt 0.508676 0.320359
vt 0.636418 0.280744
vt 0.651914 0.291301
vt 0.582346 0.462227
vt 0.685477 0.375649
vt 0.507951 0.411431
vt 0.500882 0.393882
vt 0.582425 0.269745
vt 0.636189 0.451239
vt 0.564100 0.458508
vt 0.546919 0.451215
vt 0.518874 0.304663
vt 0.665065 0.304750
vt 0.681653 0.394144
vt 0.674650 0.411575
vt 0.675336 0.320564
vt 0.280808 0.286510
vt 0.272652 0.292034
vt 0.260057 0.269893
vt 0.264118 0.267165
vt 0.263582 0.295809
vt 0.255546 0.271788
vt 0.253986 0.297642
vt 0.250747 0.272785
vt 0.253590 0.297689
vt 0.243813 0.297965
vt 0.245841 0.272769
vt 0.234157 0.296232
vt 0.241058 0.271809
vt 0.225029 0.292600
vt 0.236568 0.269940
vt 0.216793 0.287231
vt 0.232539 0.267237
vt 0.209771 0.280343
vt 0.229124 0.263802
vt 0.204236 0.272208
vt 0.226456 0.259768
vt 0.200402 0.263143
vt 0.224639 0.255292
vt 0.198417 0.253500
vt 0.223742 0.250546
vt 0.198357 0.243650
vt 0.223801 0.245713
vt 0.200224 0.233973
vt 0.224817 0.240979
vt 0.203944 0.224838
vt 0.226748 0.236526
vt 0.209374 0.216596
vt 0.229509 0.232519
vt 0.216303 0.209559
vt 0.232992 0.229078
vt 0.224466 0.203997
vt 0.237068 0.226355
vt 0.233549 0.200123
vt 0.241582 0.224460
vt 0.243206 0.198088
vt 0.246360 0.223475
vt 0.253065 0.197970
vt 0.251220 0.223440
vt 0.262750 0.199775
vt 0.255975 0.224358
vt 0.271889 0.203434
vt 0.260442 0.226189
vt 0.280132 0.208807
vt 0.264449 0.228863
vt 0.287163 0.215688
vt 0.267843 0.232276
vt 0.292712 0.223814
vt 0.270495 0.236294
vt 0.296566 0.232874
vt 0.272308 0.240766
vt 0.298577 0.242518
vt 0.273215 0.245522
vt 0.298666 0.252377
vt 0.273180 0.250380
vt 0.296829 0.262071
vt 0.272198 0.255152
vt 0.293135 0.271223
vt 0.270306 0.259651
vt 0.267578 0.263706
vt 0.264804 0.261424
vt 0.267151 0.257947
vt 0.287725 0.279478
vt 0.295678 0.285773
vt 0.287387 0.294249
vt 0.302156 0.275842
vt 0.306571 0.264840
vt 0.308755 0.253194
vt 0.308624 0.241351
vt 0.306186 0.229769
vt 0.301536 0.218893
vt 0.294852 0.209139
vt 0.286392 0.200881
vt 0.276481 0.194436
vt 0.265498 0.190050
vt 0.253865 0.187890
vt 0.242027 0.188039
vt 0.230437 0.190489
vt 0.219539 0.195147
vt 0.209750 0.201834
vt 0.201446 0.210292
vt 0.194945 0.220199
vt 0.190498 0.231177
vt 0.188278 0.242806
vt 0.188370 0.254640
vt 0.190774 0.266225
vt 0.195396 0.277114
vt 0.202060 0.286888
vt 0.210510 0.295167
vt 0.220420 0.301632
vt 0.231407 0.306028
vt 0.243049 0.308183
vt 0.254891 0.308012
vt 0.266694 0.305579
vt 0.255089 0.307988
vt 0.277600 0.300939
vt 0.261835 0.264393
vt 0.260471 0.262722
vt 0.263145 0.260043
vt 0.269630 0.250004
vt 0.269670 0.245840
vt 0.267368 0.237937
vt 0.265108 0.234501
vt 0.258787 0.229310
vt 0.254968 0.227753
vt 0.250901 0.226982
vt 0.246743 0.227027
vt 0.238780 0.229528
vt 0.235274 0.231874
vt 0.262211 0.231588
vt 0.229870 0.238261
vt 0.228199 0.242066
vt 0.229587 0.258114
vt 0.231871 0.261560
vt 0.232268 0.234836
vt 0.238247 0.266801
vt 0.242095 0.268393
vt 0.227322 0.246109
vt 0.227266 0.250236
vt 0.234796 0.264493
vt 0.246190 0.269205
vt 0.250377 0.269197
vt 0.258352 0.266734
vt 0.268781 0.254092
vt 0.268906 0.241765
vt 0.242651 0.227886
vt 0.228032 0.254291
vt 0.254485 0.268357
vt 0.827708 0.289037
vt 0.839745 0.301074
vt 0.849202 0.315228
vt 0.855716 0.330954
vt 0.859037 0.347650
vt 0.859037 0.364673
vt 0.855716 0.381368
vt 0.849202 0.397095
vt 0.839745 0.411248
vt 0.827708 0.423285
vt 0.813554 0.432742
vt 0.797827 0.439256
vt 0.781132 0.442577
vt 0.764110 0.442577
vt 0.747414 0.439256
vt 0.731687 0.432742
vt 0.717534 0.423284
vt 0.705497 0.411248
vt 0.696040 0.397094
vt 0.689526 0.381368
vt 0.686205 0.364673
vt 0.686204 0.347650
vt 0.689525 0.330955
vt 0.696039 0.315228
vt 0.705496 0.301074
vt 0.717533 0.289037
vt 0.731687 0.279580
vt 0.747414 0.273066
vt 0.764110 0.269745
vt 0.781132 0.269745
vt 0.797828 0.273066
vt 0.813555 0.279580
vt 0.231728 0.239321
vt 0.230217 0.242733
vt 0.260866 0.233211
vt 0.257791 0.231173
vt 0.233521 0.260224
vt 0.236153 0.262854
vt 0.239806 0.231440
vt 0.236638 0.233563
vt 0.267543 0.246015
vt 0.266863 0.242347
vt 0.243290 0.229944
vt 0.250167 0.267054
vt 0.253859 0.266297
vt 0.254360 0.229784
vt 0.250707 0.229102
vt 0.229426 0.246359
vt 0.229375 0.250063
vt 0.265264 0.256912
vt 0.239260 0.264923
vt 0.265490 0.238905
vt 0.263466 0.235822
vt 0.233918 0.236249
vt 0.257337 0.264833
vt 0.266735 0.253441
vt 0.267503 0.249763
vt 0.246970 0.229157
vt 0.230065 0.253701
vt 0.242722 0.266347
vt 0.246406 0.267068
vt 0.231465 0.257132
vt 0.293966 0.301988
vt 0.282548 0.309843
vt 0.269805 0.315350
vt 0.256193 0.318335
vt 0.242286 0.318402
vt 0.228658 0.315823
vt 0.215810 0.310663
vt 0.204227 0.303104
vt 0.194350 0.293433
vt 0.186557 0.282021
vt 0.181146 0.269307
vt 0.178324 0.255781
vt 0.178199 0.241962
vt 0.180773 0.228381
vt 0.185946 0.215560
vt 0.193518 0.203988
vt 0.203197 0.194108
vt 0.214612 0.186298
vt 0.227324 0.180856
vt 0.240847 0.177990
vt 0.254664 0.177810
vt 0.268246 0.180325
vt 0.281073 0.185438
vt 0.292653 0.192956
vt 0.302542 0.202589
vt 0.310360 0.213971
vt 0.315807 0.226665
vt 0.318672 0.240185
vt 0.318843 0.254010
vt 0.316313 0.267610
vt 0.311177 0.280461
vt 0.303632 0.292069
vn 0.0980 0.0000 -0.9952
vn 0.2903 0.0000 -0.9569
vn 0.4714 0.0000 -0.8819
vn 0.6344 0.0000 -0.7730
vn 0.7730 0.0000 -0.6344
vn 0.8819 0.0000 -0.4714
vn 0.9569 0.0000 -0.2903
vn 0.9952 0.0000 -0.0980
vn 0.9952 0.0000 0.0980
vn 0.9569 0.0000 0.2903
vn 0.8819 0.0000 0.4714
vn 0.7730 0.0000 0.6344
vn 0.6344 0.0000 0.7730
vn 0.4714 0.0000 0.8819
vn 0.2903 0.0000 0.9569
vn 0.0980 0.0000 0.9952
vn -0.0980 0.0000 0.9952
vn -0.2903 0.0000 0.9569
vn -0.4714 0.0000 0.8819
vn -0.6344 0.0000 0.7730
vn -0.7730 0.0000 0.6344
vn -0.8819 0.0000 0.4714
vn -0.9569 0.0000 0.2903
vn -0.9952 0.0000 0.0980
vn -0.9952 0.0000 -0.0980
vn -0.9569 0.0000 -0.2903
vn -0.8819 0.0000 -0.4714
vn -0.7730 0.0000 -0.6344
vn -0.6344 0.0000 -0.7730
vn -0.4714 0.0000 -0.8819
vn 0.0000 1.0000 0.0000
vn -0.2903 0.0000 -0.9569
vn -0.0980 0.0000 -0.9952
vn 0.0000 -1.0000 -0.0000
vn 0.0971 0.1331 -0.9863
vn 0.2877 0.1331 -0.9484
vn 0.4672 0.1331 -0.8741
vn 0.6288 0.1331 -0.7661
vn 0.7661 0.1331 -0.6288
vn 0.8741 0.1331 -0.4672
vn 0.9484 0.1331 -0.2877
vn 0.9863 0.1331 -0.0971
vn 0.9863 0.1331 0.0971
vn 0.9484 0.1331 0.2877
vn 0.8741 0.1331 0.4672
vn 0.7661 0.1331 0.6288
vn 0.6288 0.1331 0.7661
vn 0.4672 0.1331 0.8741
vn 0.2877 0.1331 0.9484
vn 0.0971 0.1331 0.9863
vn -0.0971 0.1331 0.9863
vn -0.2877 0.1331 0.9484
vn -0.4672 0.1331 0.8741
vn -0.6288 0.1331 0.7661
vn -0.7661 0.1331 0.6288
vn -0.8741 0.1331 0.4672
vn -0.9484 0.1331 0.2877
vn -0.9863 0.1331 0.0971
vn -0.9863 0.1331 -0.0971
vn -0.9484 0.1331 -0.2877
vn -0.8741 0.1331 -0.4672
vn -0.7661 0.1331 -0.6288
vn -0.6288 0.1331 -0.7661
vn -0.4672 0.1331 -0.8741
vn -0.1087 0.9272 -0.3584
vn -0.2877 0.1331 -0.9484
vn -0.0971 0.1331 -0.9863
vn -0.2895 0.9272 -0.2376
vn -0.3727 0.9272 -0.0367
vn -0.3303 0.9272 0.1765
vn -0.2376 0.9272 0.2895
vn -0.0367 0.9272 0.3727
vn -0.3584 0.9272 0.1087
vn 0.1765 0.9272 0.3303
vn 0.3727 0.9272 0.0367
vn 0.1087 0.9272 0.3584
vn 0.3303 0.9272 -0.1765
vn 0.2895 0.9272 0.2376
vn 0.3584 0.9272 -0.1087
vn 0.2376 0.9272 -0.2895
vn 0.0367 0.9272 -0.3727
vn -0.0367 0.9272 -0.3727
vn -0.2376 0.9272 -0.2895
vn -0.3584 0.9272 -0.1087
vn -0.3727 0.9272 0.0367
vn -0.2895 0.9272 0.2376
vn -0.3303 0.9272 -0.1765
vn -0.1087 0.9272 0.3584
vn 0.2376 0.9272 0.2895
vn -0.1765 0.9272 0.3303
vn 0.3584 0.9272 0.1087
vn 0.0367 0.9272 0.3727
vn 0.2895 0.9272 -0.2376
vn 0.3303 0.9272 0.1765
vn 0.1087 0.9272 -0.3584
vn 0.3727 0.9272 -0.0367
vn 0.1765 0.9272 -0.3303
vn -0.1765 0.9272 -0.3303
vn 0.0971 -0.1331 -0.9863
vn 0.2877 -0.1331 -0.9484
vn 0.4672 -0.1331 -0.8741
vn 0.6288 -0.1331 -0.7661
vn 0.7661 -0.1331 -0.6288
vn 0.8741 -0.1331 -0.4672
vn 0.9484 -0.1331 -0.2877
vn 0.9863 -0.1331 -0.0971
vn 0.9863 -0.1331 0.0971
vn 0.9484 -0.1331 0.2877
vn 0.8741 -0.1331 0.4672
vn 0.7661 -0.1331 0.6288
vn 0.6288 -0.1331 0.7661
vn 0.4672 -0.1331 0.8741
vn 0.2877 -0.1331 0.9484
vn 0.0971 -0.1331 0.9863
vn -0.0971 -0.1331 0.9863
vn -0.2877 -0.1331 0.9484
vn -0.4672 -0.1331 0.8741
vn -0.6288 -0.1331 0.7661
vn -0.7661 -0.1331 0.6288
vn -0.8741 -0.1331 0.4672
vn -0.9484 -0.1331 0.2877
vn -0.9863 -0.1331 0.0971
vn -0.9863 -0.1331 -0.0971
vn -0.9484 -0.1331 -0.2877
vn -0.8741 -0.1331 -0.4672
vn -0.7661 -0.1331 -0.6288
vn -0.6288 -0.1331 -0.7661
vn -0.4672 -0.1331 -0.8741
vn -0.1087 -0.9272 -0.3584
vn -0.2877 -0.1331 -0.9484
vn -0.0971 -0.1331 -0.9863
vn -0.2895 -0.9272 -0.2376
vn -0.3727 -0.9272 -0.0367
vn -0.3303 -0.9272 0.1765
vn -0.2376 -0.9272 0.2895
vn -0.0367 -0.9272 0.3727
vn -0.3584 -0.9272 0.1087
vn 0.1765 -0.9272 0.3303
vn 0.3727 -0.9272 0.0367
vn 0.1087 -0.9272 0.3584
vn 0.3303 -0.9272 -0.1765
vn 0.2895 -0.9272 0.2376
vn 0.3584 -0.9272 -0.1087
vn 0.2376 -0.9272 -0.2895
vn 0.0367 -0.9272 -0.3727
vn -0.0367 -0.9272 -0.3727
vn -0.2376 -0.9272 -0.2895
vn -0.3584 -0.9272 -0.1087
vn -0.3727 -0.9272 0.0367
vn -0.2895 -0.9272 0.2376
vn -0.3303 -0.9272 -0.1765
vn -0.1087 -0.9272 0.3584
vn 0.2376 -0.9272 0.2895
vn -0.1765 -0.9272 0.3303
vn 0.3584 -0.9272 0.1087
vn 0.0367 -0.9272 0.3727
vn 0.2895 -0.9272 -0.2376
vn 0.3303 -0.9272 0.1765
vn 0.1087 -0.9272 -0.3584
vn 0.3727 -0.9272 -0.0367
vn 0.1765 -0.9272 -0.3303
vn -0.1765 -0.9272 -0.3303
usemtl Material
s off
f 1/1/1 2/2/1 4/3/1 3/4/1
f 3/4/2 4/3/2 6/5/2 5/6/2
f 5/6/3 6/5/3 8/7/3 7/8/3
f 7/8/4 8/7/4 10/9/4 9/10/4
f 9/10/5 10/9/5 12/11/5 11/12/5
f 11/12/6 12/11/6 14/13/6 13/14/6
f 13/14/7 14/13/7 16/15/7 15/16/7
f 15/16/8 16/15/8 18/17/8 17/18/8
f 17/18/9 18/17/9 20/19/9 19/20/9
f 19/20/10 20/19/10 22/21/10 21/22/10
f 21/22/11 22/21/11 24/23/11 23/24/11
f 23/24/12 24/23/12 26/25/12 25/26/12
f 25/26/13 26/25/13 28/27/13 27/28/13
f 27/28/14 28/27/14 30/29/14 29/30/14
f 29/30/15 30/29/15 32/31/15 31/32/15
f 31/32/16 32/31/16 34/33/16 33/34/16
f 33/34/17 34/33/17 36/35/17 35/36/17
f 35/36/18 36/35/18 38/37/18 37/38/18
f 37/38/19 38/37/19 40/39/19 39/40/19
f 39/40/20 40/39/20 42/41/20 41/42/20
f 41/42/21 42/41/21 44/43/21 43/44/21
f 43/44/22 44/43/22 46/45/22 45/46/22
f 45/46/23 46/45/23 48/47/23 47/48/23
f 47/48/24 48/47/24 50/49/24 49/50/24
f 49/50/25 50/49/25 52/51/25 51/52/25
f 51/52/26 52/51/26 54/53/26 53/54/26
f 53/54/27 54/53/27 56/55/27 55/56/27
f 55/56/28 56/55/28 58/57/28 57/58/28
f 57/58/29 58/57/29 60/59/29 59/60/29
f 59/60/30 60/59/30 62/61/30 61/62/30
f 4/63/31 2/64/31 64/65/31 62/66/31 60/67/31 58/68/31 56/69/31 54/70/31 52/71/31 50/72/31 48/73/31 46/74/31 44/75/31 42/76/31 40/77/31 38/78/31 36/79/31 34/80/31 32/81/31 30/82/31 28/83/31 26/84/31 24/85/31 22/86/31 20/87/31 18/88/31 16/89/31 14/90/31 12/91/31 10/92/31 8/93/31 6/94/31
f 61/62/32 62/61/32 64/95/32 63/96/32
f 63/96/33 64/95/33 2/2/33 1/1/33
f 1/97/34 3/98/34 5/99/34 7/100/34 9/101/34 11/102/34 13/103/34 15/104/34 17/105/34 19/106/34 21/107/34 23/108/34 25/109/34 27/110/34 29/111/34 31/112/34 33/113/34 35/114/34 37/115/34 39/116/34 41/117/34 43/118/34 45/119/34 47/120/34 49/121/34 51/122/34 53/123/34 55/124/34 57/125/34 59/126/34 61/127/34 63/128/34
f 65/129/1 66/130/1 68/131/1 67/132/1
f 67/132/2 68/131/2 70/133/2 69/134/2
f 69/134/3 70/133/3 72/135/3 71/136/3
f 71/136/4 72/135/4 74/137/4 73/138/4
f 73/138/5 74/137/5 76/139/5 75/140/5
f 75/140/6 76/139/6 78/141/6 77/142/6
f 77/142/7 78/141/7 80/143/7 79/144/7
f 79/144/8 80/143/8 82/145/8 81/146/8
f 81/146/9 82/145/9 84/147/9 83/148/9
f 83/148/10 84/147/10 86/149/10 85/150/10
f 85/150/11 86/149/11 88/151/11 87/152/11
f 87/152/12 88/151/12 90/153/12 89/154/12
f 89/154/13 90/153/13 92/155/13 91/156/13
f 91/156/14 92/155/14 94/157/14 93/158/14
f 93/158/15 94/157/15 96/159/15 95/160/15
f 95/160/16 96/159/16 98/161/16 97/162/16
f 97/162/17 98/161/17 100/163/17 99/164/17
f 99/164/18 100/163/18 102/165/18 101/166/18
f 101/166/19 102/165/19 104/167/19 103/168/19
f 103/168/20 104/167/20 106/169/20 105/170/20
f 105/170/21 106/169/21 108/171/21 107/172/21
f 107/172/22 108/171/22 110/173/22 109/174/22
f 109/174/23 110/173/23 112/175/23 111/176/23
f 111/176/24 112/175/24 114/177/24 113/178/24
f 113/178/25 114/177/25 116/179/25 115/180/25
f 115/180/26 116/179/26 118/181/26 117/182/26
f 117/182/27 118/181/27 120/183/27 119/184/27
f 119/184/28 120/183/28 122/185/28 121/186/28
f 121/186/29 122/185/29 124/187/29 123/188/29
f 123/188/30 124/187/30 126/189/30 125/190/30
f 68/191/31 66/192/31 128/193/31 126/194/31 124/195/31 122/196/31 120/197/31 118/198/31 116/199/31 114/200/31 112/201/31 110/202/31 108/203/31 106/204/31 104/205/31 102/206/31 100/207/31 98/208/31 96/209/31 94/210/31 92/211/31 90/212/31 88/213/31 86/214/31 84/215/31 82/216/31 80/217/31 78/218/31 76/219/31 74/220/31 72/221/31 70/222/31
f 125/190/32 126/189/32 128/223/32 127/224/32
f 127/224/33 128/223/33 66/130/33 65/129/33
f 65/225/34 67/226/34 69/227/34 71/228/34 73/229/34 75/230/34 77/231/34 79/232/34 81/233/34 83/234/34 85/235/34 87/236/34 89/237/34 91/238/34 93/239/34 95/240/34 97/241/34 99/242/34 101/243/34 103/244/34 105/245/34 107/246/34 109/247/34 111/248/34 113/249/34 115/250/34 117/251/34 119/252/34 121/253/34 123/254/34 125/255/34 127/256/34
f 161/257/35 129/258/35 130/259/35 162/260/35
f 162/260/36 130/259/36 131/261/36 163/262/36
f 163/262/37 131/261/37 132/263/37 164/264/37
f 164/264/38 132/263/38 133/265/38 165/266/38
f 165/266/39 133/265/39 134/267/39 166/268/39
f 166/268/40 134/267/40 135/269/40 167/270/40
f 167/270/41 135/269/41 136/271/41 168/272/41
f 168/272/42 136/271/42 137/273/42 169/274/42
f 169/274/43 137/273/43 138/275/43 170/276/43
f 170/276/44 138/275/44 139/277/44 171/278/44
f 171/278/45 139/277/45 140/279/45 172/280/45
f 172/280/46 140/279/46 141/281/46 173/282/46
f 173/282/47 141/281/47 142/283/47 174/284/47
f 174/284/48 142/283/48 143/285/48 175/286/48
f 175/286/49 143/285/49 144/287/49 176/288/49
f 176/288/50 144/287/50 145/289/50 177/290/50
f 177/290/51 145/289/51 146/291/51 178/292/51
f 178/292/52 146/291/52 147/293/52 179/294/52
f 179/294/53 147/293/53 148/295/53 180/296/53
f 180/296/54 148/295/54 149/297/54 181/298/54
f 181/298/55 149/297/55 150/299/55 182/300/55
f 182/300/56 150/299/56 151/301/56 183/302/56
f 183/302/57 151/301/57 152/303/57 184/304/57
f 184/304/58 152/303/58 153/305/58 185/306/58
f 185/306/59 153/305/59 154/307/59 186/308/59
f 186/308/60 154/307/60 155/309/60 187/310/60
f 187/310/61 155/309/61 156/311/61 188/312/61
f 188/312/62 156/311/62 157/313/62 189/314/62
f 189/314/63 157/313/63 158/315/63 190/316/63
f 190/316/64 158/315/64 159/317/64 191/318/64
f 160/319/65 159/317/65 223/320/65 224/321/65
f 191/318/66 159/317/66 160/319/66 192/322/66
f 192/322/67 160/319/67 129/258/67 161/257/67
f 480/323/33 192/322/33 161/257/33 449/324/33
f 479/325/32 191/318/32 192/322/32 480/323/32
f 478/326/30 190/316/30 191/318/30 479/325/30
f 477/327/29 189/314/29 190/316/29 478/326/29
f 476/328/28 188/312/28 189/314/28 477/327/28
f 475/329/27 187/310/27 188/312/27 476/328/27
f 474/330/26 186/308/26 187/310/26 475/329/26
f 473/331/25 185/306/25 186/308/25 474/330/25
f 472/332/24 184/304/24 185/306/24 473/331/24
f 471/333/23 183/302/23 184/304/23 472/332/23
f 470/334/22 182/300/22 183/302/22 471/333/22
f 469/335/21 181/298/21 182/300/21 470/334/21
f 468/336/20 180/296/20 181/298/20 469/335/20
f 467/337/19 179/294/19 180/296/19 468/336/19
f 466/338/18 178/292/18 179/294/18 467/337/18
f 465/339/17 177/290/17 178/292/17 466/338/17
f 464/340/16 176/288/16 177/290/16 465/339/16
f 463/341/15 175/286/15 176/288/15 464/340/15
f 462/342/14 174/284/14 175/286/14 463/341/14
f 461/343/13 173/282/13 174/284/13 462/342/13
f 460/344/12 172/280/12 173/282/12 461/343/12
f 459/345/11 171/278/11 172/280/11 460/344/11
f 458/346/10 170/276/10 171/278/10 459/345/10
f 457/347/9 169/274/9 170/276/9 458/346/9
f 456/348/8 168/272/8 169/274/8 457/347/8
f 455/349/7 167/270/7 168/272/7 456/348/7
f 454/350/6 166/268/6 167/270/6 455/349/6
f 453/351/5 165/266/5 166/268/5 454/350/5
f 452/352/4 164/264/4 165/266/4 453/351/4
f 451/353/3 163/262/3 164/264/3 452/352/3
f 450/354/2 162/260/2 163/262/2 451/353/2
f 449/324/1 161/257/1 162/260/1 450/354/1
f 194/355/16 224/356/16 256/357/16 226/358/16
f 157/313/68 156/311/68 220/359/68 221/360/68
f 154/307/69 153/305/69 217/361/69 218/362/69
f 151/301/70 150/299/70 214/363/70 215/364/70
f 149/297/71 148/295/71 212/365/71 213/366/71
f 146/291/72 145/289/72 209/367/72 210/368/72
f 152/303/73 151/301/73 215/364/73 216/369/73
f 143/285/74 142/283/74 206/370/74 207/371/74
f 138/275/75 137/273/75 201/372/75 202/373/75
f 144/287/76 143/285/76 207/371/76 208/374/76
f 135/269/77 134/267/77 198/375/77 199/376/77
f 141/281/78 140/279/78 204/377/78 205/378/78
f 136/271/79 135/269/79 199/376/79 200/379/79
f 133/265/80 132/263/80 196/380/80 197/381/80
f 130/259/81 129/258/81 194/382/81 193/383/81
f 129/258/82 160/319/82 224/321/82 194/382/82
f 158/315/83 157/313/83 221/360/83 222/384/83
f 155/309/84 154/307/84 218/362/84 219/385/84
f 153/305/85 152/303/85 216/369/85 217/361/85
f 150/299/86 149/297/86 213/366/86 214/363/86
f 156/311/87 155/309/87 219/385/87 220/359/87
f 147/293/88 146/291/88 210/368/88 211/386/88
f 142/283/89 141/281/89 205/378/89 206/370/89
f 148/295/90 147/293/90 211/386/90 212/365/90
f 139/277/91 138/275/91 202/373/91 203/387/91
f 145/289/92 144/287/92 208/374/92 209/367/92
f 134/267/93 133/265/93 197/381/93 198/375/93
f 140/279/94 139/277/94 203/387/94 204/377/94
f 131/261/95 130/259/95 193/383/95 195/388/95
f 137/273/96 136/271/96 200/379/96 201/372/96
f 132/263/97 131/261/97 195/388/97 196/380/97
f 159/317/98 158/315/98 222/384/98 223/320/98
f 225/389/31 226/358/31 256/357/31 255/390/31 254/391/31 253/392/31 252/393/31 251/394/31 250/395/31 249/396/31 248/397/31 247/398/31 246/399/31 245/400/31 244/401/31 243/402/31 242/403/31 241/404/31 240/405/31 239/406/31 238/407/31 237/408/31 236/409/31 235/410/31 234/411/31 233/412/31 232/413/31 231/414/31 230/415/31 229/416/31 228/417/31 227/418/31
f 207/419/30 206/420/30 238/407/30 239/406/30
f 216/421/7 215/422/7 247/398/7 248/397/7
f 201/423/24 200/424/24 232/413/24 233/412/24
f 210/425/1 209/426/1 241/404/1 242/403/1
f 220/427/11 219/428/11 251/394/11 252/393/11
f 211/429/2 210/425/2 242/403/2 243/402/2
f 196/430/19 195/431/19 227/418/19 228/417/19
f 214/432/5 213/433/5 245/400/5 246/399/5
f 205/434/28 204/435/28 236/409/28 237/408/28
f 224/356/15 223/436/15 255/390/15 256/357/15
f 215/422/6 214/432/6 246/399/6 247/398/6
f 200/424/23 199/437/23 231/414/23 232/413/23
f 218/438/9 217/439/9 249/396/9 250/395/9
f 209/426/33 208/440/33 240/405/33 241/404/33
f 193/441/17 194/355/17 226/358/17 225/389/17
f 219/428/10 218/438/10 250/395/10 251/394/10
f 222/442/13 221/443/13 253/392/13 254/391/13
f 195/431/18 193/441/18 225/389/18 227/418/18
f 213/433/4 212/444/4 244/401/4 245/400/4
f 204/435/27 203/445/27 235/410/27 236/409/27
f 198/446/21 197/447/21 229/416/21 230/415/21
f 223/436/14 222/442/14 254/391/14 255/390/14
f 217/439/8 216/421/8 248/397/8 249/396/8
f 208/440/32 207/419/32 239/406/32 240/405/32
f 199/437/22 198/446/22 230/415/22 231/414/22
f 202/448/25 201/423/25 233/412/25 234/411/25
f 212/444/3 211/429/3 243/402/3 244/401/3
f 203/445/26 202/448/26 234/411/26 235/410/26
f 221/443/12 220/427/12 252/393/12 253/392/12
f 206/420/29 205/434/29 237/408/29 238/407/29
f 197/447/20 196/430/20 228/417/20 229/416/20
f 289/449/99 290/450/99 258/451/99 257/452/99
f 290/450/100 291/453/100 259/454/100 258/451/100
f 291/453/101 292/455/101 260/456/101 259/454/101
f 292/457/102 293/458/102 261/459/102 260/456/102
f 293/458/103 294/460/103 262/461/103 261/459/103
f 294/460/104 295/462/104 263/463/104 262/461/104
f 295/462/105 296/464/105 264/465/105 263/463/105
f 296/464/106 297/466/106 265/467/106 264/465/106
f 297/466/107 298/468/107 266/469/107 265/467/107
f 298/468/108 299/470/108 267/471/108 266/469/108
f 299/470/109 300/472/109 268/473/109 267/471/109
f 300/472/110 301/474/110 269/475/110 268/473/110
f 301/474/111 302/476/111 270/477/111 269/475/111
f 302/476/112 303/478/112 271/479/112 270/477/112
f 303/478/113 304/480/113 272/481/113 271/479/113
f 304/480/114 305/482/114 273/483/114 272/481/114
f 305/482/115 306/484/115 274/485/115 273/483/115
f 306/484/116 307/486/116 275/487/116 274/485/116
f 307/486/117 308/488/117 276/489/117 275/487/117
f 308/488/118 309/490/118 277/491/118 276/489/118
f 309/490/119 310/492/119 278/493/119 277/491/119
f 310/492/120 311/494/120 279/495/120 278/493/120
f 311/494/121 312/496/121 280/497/121 279/495/121
f 312/496/122 313/498/122 281/499/122 280/497/122
f 313/498/123 314/500/123 282/501/123 281/499/123
f 314/500/124 315/502/124 283/503/124 282/501/124
f 315/502/125 316/504/125 284/505/125 283/503/125
f 316/504/126 317/506/126 285/507/126 284/505/126
f 317/506/127 318/508/127 286/509/127 285/507/127
f 318/508/128 319/510/128 287/511/128 286/509/128
f 288/512/129 352/513/129 351/514/129 287/511/129
f 319/510/130 320/515/130 288/512/130 287/511/130
f 320/515/131 289/449/131 257/452/131 288/512/131
f 448/516/33 417/517/33 289/449/33 320/515/33
f 447/518/32 448/516/32 320/515/32 319/510/32
f 446/519/30 447/518/30 319/510/30 318/508/30
f 445/520/29 446/519/29 318/508/29 317/506/29
f 444/521/28 445/520/28 317/506/28 316/504/28
f 443/522/27 444/521/27 316/504/27 315/502/27
f 442/523/26 443/522/26 315/502/26 314/500/26
f 441/524/25 442/523/25 314/500/25 313/498/25
f 440/525/24 441/524/24 313/498/24 312/496/24
f 439/526/23 440/525/23 312/496/23 311/494/23
f 438/527/22 439/526/22 311/494/22 310/492/22
f 437/528/21 438/527/21 310/492/21 309/490/21
f 436/529/20 437/528/20 309/490/20 308/488/20
f 435/530/19 436/529/19 308/488/19 307/486/19
f 434/531/18 435/530/18 307/486/18 306/484/18
f 433/532/17 434/531/17 306/484/17 305/482/17
f 432/533/16 433/532/16 305/482/16 304/480/16
f 431/534/15 432/533/15 304/480/15 303/478/15
f 430/535/14 431/534/14 303/478/14 302/476/14
f 429/536/13 430/535/13 302/476/13 301/474/13
f 428/537/12 429/536/12 301/474/12 300/472/12
f 427/538/11 428/537/11 300/472/11 299/470/11
f 426/539/10 427/538/10 299/470/10 298/468/10
f 425/540/9 426/539/9 298/468/9 297/466/9
f 424/541/8 425/540/8 297/466/8 296/464/8
f 423/542/7 424/541/7 296/464/7 295/462/7
f 422/543/6 423/542/6 295/462/6 294/460/6
f 421/544/5 422/543/5 294/460/5 293/458/5
f 420/545/4 421/544/4 293/458/4 292/457/4
f 419/546/3 420/547/3 292/455/3 291/453/3
f 418/548/2 419/546/2 291/453/2 290/450/2
f 417/517/1 418/548/1 290/450/1 289/449/1
f 322/549/16 354/550/16 384/551/16 352/513/16
f 285/507/132 349/552/132 348/553/132 284/505/132
f 282/501/133 346/554/133 345/555/133 281/499/133
f 279/495/134 343/556/134 342/557/134 278/493/134
f 277/491/135 341/558/135 340/559/135 276/489/135
f 274/485/136 338/560/136 337/561/136 273/483/136
f 280/497/137 344/562/137 343/556/137 279/495/137
f 271/479/138 335/563/138 334/564/138 270/477/138
f 266/469/139 330/565/139 329/566/139 265/467/139
f 272/481/140 336/567/140 335/563/140 271/479/140
f 263/463/141 327/568/141 326/569/141 262/461/141
f 269/475/142 333/570/142 332/571/142 268/473/142
f 264/465/143 328/572/143 327/568/143 263/463/143
f 261/459/144 325/573/144 324/574/144 260/456/144
f 258/451/145 321/575/145 322/549/145 257/452/145
f 257/452/146 322/549/146 352/513/146 288/512/146
f 286/509/147 350/576/147 349/552/147 285/507/147
f 283/503/148 347/577/148 346/554/148 282/501/148
f 281/499/149 345/555/149 344/562/149 280/497/149
f 278/493/150 342/557/150 341/558/150 277/491/150
f 284/505/151 348/553/151 347/577/151 283/503/151
f 275/487/152 339/578/152 338/560/152 274/485/152
f 270/477/153 334/564/153 333/570/153 269/475/153
f 276/489/154 340/559/154 339/578/154 275/487/154
f 267/471/155 331/579/155 330/565/155 266/469/155
f 273/483/156 337/561/156 336/567/156 272/481/156
f 262/461/157 326/569/157 325/573/157 261/459/157
f 268/473/158 332/571/158 331/579/158 267/471/158
f 259/454/159 323/580/159 321/575/159 258/451/159
f 265/467/160 329/566/160 328/572/160 264/465/160
f 260/456/161 324/574/161 323/580/161 259/454/161
f 287/511/162 351/514/162 350/576/162 286/509/162
f 353/581/34 355/582/34 356/583/34 357/584/34 358/585/34 359/586/34 360/587/34 361/588/34 362/589/34 363/590/34 364/591/34 365/592/34 366/593/34 367/594/34 368/595/34 369/596/34 370/597/34 371/598/34 372/599/34 373/600/34 374/601/34 375/602/34 376/603/34 377/604/34 378/605/34 379/606/34 380/607/34 381/608/34 382/609/34 383/610/34 384/611/34 354/612/34
f 335/563/30 367/613/30 366/614/30 334/564/30
f 344/562/7 376/615/7 375/616/7 343/556/7
f 329/566/24 361/617/24 360/618/24 328/572/24
f 338/560/1 370/619/1 369/620/1 337/561/1
f 348/553/11 380/621/11 379/622/11 347/577/11
f 339/578/2 371/623/2 370/619/2 338/560/2
f 324/574/19 356/624/19 355/625/19 323/580/19
f 342/557/5 374/626/5 373/627/5 341/558/5
f 333/570/28 365/628/28 364/629/28 332/571/28
f 352/513/15 384/551/15 383/630/15 351/514/15
f 343/556/6 375/616/6 374/626/6 342/557/6
f 328/572/23 360/618/23 359/631/23 327/568/23
f 346/554/9 378/632/9 377/633/9 345/555/9
f 337/561/33 369/620/33 368/634/33 336/567/33
f 321/575/17 353/635/17 354/550/17 322/549/17
f 347/577/10 379/622/10 378/632/10 346/554/10
f 350/576/13 382/636/13 381/637/13 349/552/13
f 323/580/18 355/625/18 353/635/18 321/575/18
f 341/558/4 373/627/4 372/638/4 340/559/4
f 332/571/27 364/629/27 363/639/27 331/579/27
f 326/569/21 358/640/21 357/641/21 325/573/21
f 351/514/14 383/630/14 382/636/14 350/576/14
f 345/555/8 377/633/8 376/615/8 344/562/8
f 336/567/32 368/634/32 367/613/32 335/563/32
f 327/568/22 359/631/22 358/640/22 326/569/22
f 330/565/25 362/642/25 361/617/25 329/566/25
f 340/559/3 372/638/3 371/623/3 339/578/3
f 331/579/26 363/639/26 362/642/26 330/565/26
f 349/552/12 381/637/12 380/621/12 348/553/12
f 334/564/29 366/614/29 365/628/29 333/570/29
f 325/573/20 357/641/20 356/624/20 324/574/20
f 385/643/1 386/644/1 418/548/1 417/517/1
f 386/644/2 387/645/2 419/546/2 418/548/2
f 387/645/3 388/646/3 420/547/3 419/546/3
f 388/646/4 389/647/4 421/544/4 420/545/4
f 389/647/5 390/648/5 422/543/5 421/544/5
f 390/648/6 391/649/6 423/542/6 422/543/6
f 391/649/7 392/650/7 424/541/7 423/542/7
f 392/650/8 393/651/8 425/540/8 424/541/8
f 393/651/9 394/652/9 426/539/9 425/540/9
f 394/652/10 395/653/10 427/538/10 426/539/10
f 395/653/11 396/654/11 428/537/11 427/538/11
f 396/654/12 397/655/12 429/536/12 428/537/12
f 397/655/13 398/656/13 430/535/13 429/536/13
f 398/656/14 399/657/14 431/534/14 430/535/14
f 399/657/15 400/658/15 432/533/15 431/534/15
f 400/658/16 401/659/16 433/532/16 432/533/16
f 401/659/17 402/660/17 434/531/17 433/532/17
f 402/660/18 403/661/18 435/530/18 434/531/18
f 403/661/19 404/662/19 436/529/19 435/530/19
f 404/662/20 405/663/20 437/528/20 436/529/20
f 405/663/21 406/664/21 438/527/21 437/528/21
f 406/664/22 407/665/22 439/526/22 438/527/22
f 407/665/23 408/666/23 440/525/23 439/526/23
f 408/666/24 409/667/24 441/524/24 440/525/24
f 409/667/25 410/668/25 442/523/25 441/524/25
f 410/668/26 411/669/26 443/522/26 442/523/26
f 411/669/27 412/670/27 444/521/27 443/522/27
f 412/670/28 413/671/28 445/520/28 444/521/28
f 413/671/29 414/672/29 446/519/29 445/520/29
f 414/672/30 415/673/30 447/518/30 446/519/30
f 415/673/32 416/674/32 448/516/32 447/518/32
f 416/674/33 385/643/33 417/517/33 448/516/33
f 385/643/1 449/324/1 450/354/1 386/644/1
f 386/644/2 450/354/2 451/353/2 387/645/2
f 387/645/3 451/353/3 452/352/3 388/646/3
f 388/646/4 452/352/4 453/351/4 389/647/4
f 389/647/5 453/351/5 454/350/5 390/648/5
f 390/648/6 454/350/6 455/349/6 391/649/6
f 391/649/7 455/349/7 456/348/7 392/650/7
f 392/650/8 456/348/8 457/347/8 393/651/8
f 393/651/9 457/347/9 458/346/9 394/652/9
f 394/652/10 458/346/10 459/345/10 395/653/10
f 395/653/11 459/345/11 460/344/11 396/654/11
f 396/654/12 460/344/12 461/343/12 397/655/12
f 397/655/13 461/343/13 462/342/13 398/656/13
f 398/656/14 462/342/14 463/341/14 399/657/14
f 399/657/15 463/341/15 464/340/15 400/658/15
f 400/658/16 464/340/16 465/339/16 401/659/16
f 401/659/17 465/339/17 466/338/17 402/660/17
f 402/660/18 466/338/18 467/337/18 403/661/18
f 403/661/19 467/337/19 468/336/19 404/662/19
f 404/662/20 468/336/20 469/335/20 405/663/20
f 405/663/21 469/335/21 470/334/21 406/664/21
f 406/664/22 470/334/22 471/333/22 407/665/22
f 407/665/23 471/333/23 472/332/23 408/666/23
f 408/666/24 472/332/24 473/331/24 409/667/24
f 409/667/25 473/331/25 474/330/25 410/668/25
f 410/668/26 474/330/26 475/329/26 411/669/26
f 411/669/27 475/329/27 476/328/27 412/670/27
f 412/670/28 476/328/28 477/327/28 413/671/28
f 413/671/29 477/327/29 478/326/29 414/672/29
f 414/672/30 478/326/30 479/325/30 415/673/30
f 415/673/32 479/325/32 480/323/32 416/674/32
f 416/674/33 480/323/33 449/324/33 385/643/33
